<svg width="104" height="19" viewBox="0 0 104 19" fill="none" xmlns="http://www.w3.org/2000/svg">
<path d="M32.5957 2.89343C34.3505 2.89343 35.4933 3.45661 36.6366 4.30971L35.6061 6.20889C34.7853 5.58124 33.8837 5.11456 32.6115 5.11456C30.3254 5.11456 28.9408 6.69181 28.9408 8.70372C28.9408 10.7156 30.3254 12.2929 32.6115 12.2929C33.8833 12.2929 34.7848 11.8262 35.6061 11.1985L36.6366 13.0977C35.4938 13.9508 34.3505 14.514 32.5957 14.514C28.7803 14.514 26.4139 11.842 26.4139 8.70372C26.4139 5.56546 28.7803 2.89343 32.5957 2.89343Z" fill="#1657F5"/>
<path d="M40.3226 7.88264C40.5964 6.38565 41.8682 5.90274 42.5925 5.90274C42.8662 5.90274 42.9465 5.91897 43.204 5.96722V8.33309C42.8658 8.25283 42.4315 8.22036 42.1897 8.22036C41.2882 8.22036 40.3866 8.75152 40.3866 9.84585V14.3364H37.9878V6.07994H40.3221V7.88264H40.3226Z" fill="#1657F5"/>
<path d="M50.2233 6.07993H52.8634L47.5187 18.1036H45.104L46.9874 13.6451L43.5905 6.07993H46.2951L48.2592 11.2463L50.2233 6.07993Z" fill="#1657F5"/>
<path d="M54.022 18.1036V6.07994H56.4209V7.287C57.0166 6.4339 57.8054 5.90274 59.0127 5.90274C61.5243 5.90274 63.0374 7.83439 63.0374 10.2485C63.0374 12.5661 61.6371 14.5136 59.061 14.5136C57.9502 14.5136 56.9842 13.9662 56.4209 13.21V18.1032H54.022V18.1036ZM58.5135 7.85063C57.3382 7.85063 56.3564 8.60723 56.3564 10.1038C56.3564 11.6328 57.2742 12.5666 58.578 12.5666C59.8981 12.5666 60.6386 11.5043 60.6386 10.2327C60.6386 8.91294 59.8336 7.85063 58.5135 7.85063Z" fill="#1657F5"/>
<path d="M23.8843 8.66763L15.2143 0L15.2098 0.00495992L15.2053 0L6.53582 8.66763L8.32898 10.4604L15.2098 3.58104L20.3047 8.67485L13.4216 15.5565L15.2143 17.3492L23.8843 8.68161L23.877 8.67485L23.8843 8.66763Z" fill="#15C7F4"/>
<path d="M0 8.68161L8.66949 17.3492L8.67445 17.3447L8.67896 17.3492L17.3484 8.68161L15.5553 6.88884L8.67445 13.7687L3.57955 8.67485L10.4626 1.79277L8.66949 0L0 8.66763L0.00721609 8.67485L0 8.68161Z" fill="#1657F5"/>
<path d="M99.0016 11.3103C99.2379 12.2405 100.058 12.5242 100.705 12.5242C101.225 12.5242 101.761 12.3195 101.761 11.9091C101.761 11.6413 101.603 11.4519 101.162 11.2941L99.743 10.6949C97.8191 10.0172 97.7248 8.74022 97.7248 8.3777C97.7248 6.75401 99.1595 5.90271 100.894 5.90271C101.824 5.90271 103.054 6.15476 103.811 7.60531L101.998 8.44082C101.792 7.79468 101.209 7.66843 100.847 7.66843C100.405 7.66843 99.9478 7.92048 99.9478 8.33035C99.9478 8.67709 100.295 8.86647 100.705 9.02383L101.919 9.49683C103.826 10.0487 104 11.2941 104 11.8298C104 13.485 102.471 14.3363 100.689 14.3363C99.4905 14.3363 97.8507 13.958 97.2986 12.2712L99.0016 11.3103Z" fill="#15C7F4"/>
<path d="M79.9245 12.8885C78.7492 14.1762 77.1879 14.514 76.0771 14.514C73.0184 14.514 71.3439 12.5985 71.3439 10.2489C71.3439 7.81856 73.2435 5.90314 75.8998 5.90314C78.1859 5.90314 80.375 7.48038 80.375 10.7638H73.7265C73.7747 11.7941 74.7245 12.5503 76.2538 12.5503C77.1071 12.5503 77.9604 12.1156 78.5399 11.5687L79.9245 12.8885ZM73.7747 9.31509H77.9122C77.7512 8.25277 76.6724 7.85057 75.8678 7.85057C75.0952 7.85057 74.0647 8.20453 73.7747 9.31509Z" fill="#15C7F4"/>
<path d="M84.1102 7.88261C84.3839 6.38562 85.6558 5.90271 86.3801 5.90271C86.6538 5.90271 86.7341 5.91894 86.9916 5.96719V8.33306C86.6534 8.2528 86.219 8.22033 85.9773 8.22033C85.0758 8.22033 84.1742 8.75149 84.1742 9.84582V14.3363H81.7754V6.07991H84.1097V7.88261H84.1102Z" fill="#15C7F4"/>
<path d="M88.2314 6.07989H90.6302V7.20669C91.3225 6.24086 92.1916 5.90314 93.1901 5.90314C95.5082 5.90314 96.136 7.75408 96.136 9.8467V14.3372H93.7371V9.8945C93.7371 8.75192 93.3186 7.88258 92.2078 7.88258C91.097 7.88258 90.6302 8.7677 90.6302 9.91073V14.3368H88.2314V6.07989Z" fill="#15C7F4"/>
<path d="M65.8273 14.514V7.55931H63.8348V5.49735H65.8273V3.08594H68.2392V5.49735H70.5465V7.55931H68.2392V14.514H65.8273Z" fill="#15C7F4"/>
</svg>
