<svg width="141" height="46" viewBox="0 0 141 46" fill="none" xmlns="http://www.w3.org/2000/svg">
    <g clip-path="url(#clip0_280_1338)">
    <path d="M86.7428 27.0769H81.6758V32.0466H86.7428V27.0769Z" fill="#3C5454"/>
    <path d="M117.224 27.0769H112.157V32.0466H117.224V27.0769Z" fill="#3C5454"/>
    <path d="M100.407 8.99489H90.2842C90.2842 11.3262 92.163 13.2254 94.4972 13.2481H95.3626H99.1202C101.238 13.2481 102.855 13.8509 103.971 15.0564C105.087 16.2391 105.645 18.1724 105.645 20.8449C105.645 23.1421 105.11 24.8821 104.039 26.0534C102.98 27.2134 101.637 27.7934 100.008 27.7934H98.2206C96.6493 27.7934 95.374 26.5197 95.374 24.9503V20.7084C95.374 17.8994 93.0967 15.6363 90.2956 15.6363V29.2035C90.2956 30.7729 91.5709 32.0466 93.1422 32.0466H100.407C103.561 32.0466 106.077 31.0004 107.933 28.9192C109.801 26.8267 110.723 23.9836 110.723 20.39C110.723 16.7963 109.767 13.9987 107.865 11.9972C105.952 9.98429 103.458 8.98352 100.395 8.98352L100.407 8.99489Z" fill="#3C5454"/>
    <path d="M138.142 12.0085C136.229 9.99564 133.735 8.99487 130.672 8.99487H120.55C120.55 11.3262 122.429 13.2254 124.763 13.2481H125.628H129.386C131.504 13.2481 133.121 13.8509 134.236 15.0563C135.352 16.2391 135.91 18.1724 135.91 20.8449C135.91 23.1421 135.375 24.882 134.305 26.0534C133.246 27.2134 131.902 27.7934 130.274 27.7934H128.486C126.915 27.7934 125.64 26.5197 125.64 24.9503V20.7084C125.64 17.8994 123.362 15.6363 120.561 15.6363V29.2035C120.561 30.7729 121.836 32.0466 123.408 32.0466H130.672C133.827 32.0466 136.343 31.0004 138.199 28.9192C140.066 26.8267 140.989 23.9836 140.989 20.39C140.989 16.7963 140.032 13.9987 138.131 11.9972L138.142 12.0085Z" fill="#3C5454"/>
    <path d="M75.4359 10.6211C73.5798 9.16543 71.405 8.44897 68.9 8.44897C65.4726 8.44897 62.7398 9.58621 60.6788 11.8721C58.5951 14.1579 57.5703 17.0806 57.5703 20.6288C57.5703 22.8919 58.0372 24.9389 58.9709 26.7926C59.9159 28.6463 61.2596 30.0792 63.0017 31.1027C64.7325 32.1035 66.7023 32.6152 68.9113 32.6152C69.4579 32.6152 69.9817 32.5583 70.4941 32.4674C70.4941 32.4674 80.3435 31.1141 77.3374 19.9009C77.3146 19.8213 77.1894 19.5939 77.1894 19.5939H75.2764H69.2871C69.2871 21.6864 70.9837 23.3809 73.0788 23.3809H74.3997C74.2403 25.0526 73.6937 26.3036 72.76 27.1224C71.8263 27.9412 70.5396 28.3506 68.9113 28.3506C66.8845 28.3506 65.3246 27.6341 64.2428 26.1785C63.1725 24.7228 62.6373 22.8805 62.6373 20.6401C62.6373 18.2633 63.1725 16.3641 64.2656 14.9198C65.3473 13.4528 66.9073 12.725 68.9227 12.725C70.1525 12.725 71.2 13.0434 72.0427 13.6803C72.1679 13.7712 72.2818 13.8736 72.3956 13.9759C74.0581 15.5567 76.1532 16.5916 78.4533 16.5916H78.6469C78.3622 14.0555 77.2919 12.0654 75.4472 10.6325L75.4359 10.6211Z" fill="#3C5454"/>
    <path d="M39.6479 18.8888C39.6479 18.8888 39.5568 18.8206 39.4998 18.7864L39.4429 18.7637C39.329 18.7182 39.181 18.7409 39.0444 18.8206C39.0216 18.8206 38.9988 18.8433 38.976 18.8433C38.8963 18.8888 38.8166 18.9456 38.7369 19.0025H38.6003C38.6003 18.8433 38.5775 18.6613 38.5661 18.4908C38.5661 18.2974 38.5434 18.1041 38.5206 17.9108C38.3726 16.33 38.0423 14.7606 37.473 13.2936C37.1086 12.3724 36.6646 11.4854 36.118 10.6552C35.5942 9.84777 34.9907 9.0972 34.3075 8.40348C33.6813 7.77801 32.9981 7.18664 32.2693 6.67489C32.0986 6.53842 31.9278 6.4247 31.757 6.31097C31.0396 5.82196 30.2767 5.38981 29.491 5.01453C27.7944 4.19572 25.9726 3.60435 24.1052 3.24044L23.9685 3.21769C23.9685 3.21769 23.8774 3.11534 23.8774 3.03574C23.8774 2.94476 23.9458 2.86515 24.0255 2.84241C24.0824 2.86515 24.1393 2.86515 24.1963 2.87652C26.0978 3.19495 27.9538 3.75219 29.7188 4.53689C30.6866 4.95766 31.6089 5.45805 32.4857 6.04941C32.6451 6.15176 32.8045 6.27686 32.9753 6.37921C33.6244 6.85684 34.2278 7.34586 34.7972 7.9031C35.4234 8.48309 35.9814 9.11994 36.4938 9.81365C37.2111 10.7803 37.8032 11.8493 38.2815 12.9638C38.8849 14.3853 39.2721 15.8865 39.4884 17.4104C39.5112 17.5127 39.5112 17.6265 39.5226 17.7288C39.5454 17.8539 39.5568 17.9904 39.5795 18.1268C39.5795 18.1723 39.5795 18.2292 39.6023 18.2747C39.6251 18.4794 39.6365 18.6841 39.6479 18.9002V18.8888Z" fill="#3C5454"/>
    <path d="M8.01611 9.21101C9.10922 9.43845 9.80381 9.4612 10.9539 9.55218C11.5346 9.58629 12.1153 9.63178 12.696 9.63178L13.5728 9.65453H14.4495C16.7838 9.60904 19.1066 9.39296 21.4181 9.04042C21.9988 8.94944 22.5682 8.83572 23.1375 8.722L24.0029 8.56278L24.8569 8.35808L26.5648 7.96005L28.2501 7.48241L29.0927 7.24359C29.3773 7.15261 29.6506 7.06163 29.9239 6.95928L31.5863 6.39067C32.6908 5.99263 33.7612 5.53774 34.8543 5.10559L35.0365 5.51499C33.9433 5.96989 32.873 6.4589 31.7685 6.87968L30.1061 7.48241C29.8328 7.58476 29.5481 7.68711 29.2749 7.77809L28.4322 8.03966L26.7356 8.56278L25.0163 9.0063L24.1509 9.22238L23.2855 9.40434C22.7048 9.51806 22.1241 9.65453 21.5434 9.75688C19.2091 10.1663 16.8521 10.4392 14.4723 10.5188L13.5841 10.5529H12.696C12.1039 10.5529 11.5118 10.5302 10.9083 10.5075C9.71271 10.4392 9.23448 10.4278 8.01611 10.2118L8.03889 9.19963L8.01611 9.21101Z" fill="#3C5454"/>
    <path d="M4.07648 15.9548C6.75233 16.5006 9.43956 16.8304 12.2179 16.9442C12.9125 16.9442 13.607 16.9897 14.3016 16.9783L16.3968 16.9328L18.4805 16.7963C18.8335 16.7736 19.1751 16.7395 19.5167 16.694L20.5529 16.5689L21.589 16.4438L22.6138 16.2618C23.297 16.1367 23.9916 16.0344 24.6748 15.8865C26.0298 15.5567 27.3962 15.2724 28.7284 14.8289C31.4157 14.067 33.9776 12.9184 36.4941 11.7129L36.7104 12.1337C34.194 13.396 31.6206 14.6015 28.9106 15.4203C27.5784 15.8979 26.1892 16.205 24.8228 16.5689C24.1396 16.7281 23.4337 16.8418 22.7391 16.9897L21.6915 17.1944L20.644 17.3422L19.5964 17.49C19.2434 17.5469 18.8904 17.581 18.5374 17.6038L16.4195 17.7857L14.3016 17.8653C13.5957 17.8881 12.8897 17.8653 12.1723 17.8653C9.33708 17.8085 7.03699 17.6493 4.21312 17.0351L4.05371 15.9775L4.07648 15.9548Z" fill="#3C5454"/>
    <path d="M10.282 24.7798C9.79235 25.03 9.31411 25.3143 8.84726 25.6441H8.82449C8.5626 25.6213 8.28932 25.6099 8.02743 25.5758C7.78831 25.5531 7.57196 25.5303 7.33285 25.5076C7.29869 25.5076 7.26453 25.5076 7.23037 25.5076C7.12789 25.5076 7.0368 25.4848 6.93432 25.4735C6.12587 25.3711 5.28326 25.246 4.29263 25.0641L3.71191 23.8813C4.71393 24.1202 5.72734 24.2908 6.72936 24.4386C7.08234 24.4955 7.43533 24.5409 7.77692 24.5751C7.98188 24.5978 8.19823 24.6319 8.40318 24.6433H8.46012C8.74478 24.6774 9.04083 24.7115 9.33688 24.7229C9.64432 24.7456 9.95176 24.7684 10.2592 24.7911L10.282 24.7798Z" fill="#3C5454"/>
    <path d="M36.3004 20.0375C33.7839 21.2998 31.2106 22.5053 28.5006 23.3241C28.2045 23.4264 27.8971 23.5288 27.601 23.6197C27.2822 23.7221 26.952 23.8131 26.6332 23.8927C26.2802 23.995 25.9272 24.086 25.5742 24.1656C25.9158 23.8813 26.2346 23.5743 26.5421 23.2445C26.8495 23.1649 27.157 23.0852 27.453 22.9943C27.7377 22.926 28.0337 22.8351 28.307 22.7327C28.307 22.7327 28.3298 22.7327 28.3412 22.7327C31.017 21.9708 33.5676 20.8221 36.0726 19.6281L36.3004 20.0375Z" fill="#3C5454"/>
    <path d="M18.9019 5.77646C18.9019 5.77646 18.9019 5.83332 18.8791 5.85607C18.8563 5.87881 18.8449 5.90156 18.8335 5.9243C18.4122 6.51566 18.0251 7.14114 17.6721 7.77799C17.3647 8.34661 17.0914 8.9266 16.8409 9.52933C16.7726 9.67717 16.7156 9.81364 16.6587 9.97285C16.6018 10.1207 16.5562 10.2572 16.5107 10.405C16.0097 11.7811 15.6681 13.214 15.4745 14.6469C15.372 15.4202 15.3151 16.1822 15.2923 16.9555C15.2923 17.2284 15.2923 17.5241 15.2923 17.797C15.2923 18.3543 15.3151 18.9115 15.3606 19.4574C15.429 20.2648 15.5428 21.0723 15.6795 21.8683C15.7022 22.0617 15.7478 22.2322 15.7819 22.4142C15.8047 22.5848 15.8503 22.7554 15.8844 22.926C15.9186 23.0965 15.9527 23.2671 15.9983 23.4377C15.6453 23.4377 15.3037 23.4377 14.9621 23.4718C14.9279 23.3012 14.8938 23.1307 14.871 22.9714C14.8369 22.8009 14.8027 22.6303 14.7913 22.4597C14.7571 22.3118 14.7344 22.1526 14.7116 22.0048C14.5977 21.1746 14.518 20.3444 14.4725 19.5029C14.4497 18.9343 14.4497 18.377 14.4497 17.8084C14.4497 17.5241 14.4725 17.2284 14.4839 16.9555C14.5294 16.1367 14.6319 15.3292 14.7571 14.5332C14.9963 13.1344 15.3606 11.7583 15.873 10.4391C15.9641 10.2117 16.0552 9.98423 16.1463 9.75678C16.1691 9.68855 16.2032 9.62031 16.2374 9.56345C16.5335 8.86974 16.8978 8.21014 17.2622 7.55055C17.6493 6.91369 18.0593 6.28821 18.5033 5.70823C18.5261 5.68548 18.5375 5.65136 18.5603 5.62862C18.5944 5.60587 18.6286 5.58313 18.6855 5.58313C18.788 5.58313 18.8791 5.66274 18.8791 5.77646H18.9019Z" fill="#3C5454"/>
    <path d="M32.6226 19.7531L31.5978 19.9692C31.3131 18.5704 30.9715 17.1943 30.5274 15.841C30.0834 14.4877 29.5368 13.1685 28.8764 11.9062C28.2273 10.6439 27.4644 9.42703 26.5877 8.30117C25.7565 7.23217 24.8228 6.24278 23.798 5.35574C23.7866 5.34436 23.7752 5.33299 23.7638 5.32162C23.7296 5.2875 23.7183 5.24201 23.7183 5.19652C23.7183 5.09417 23.798 5.00319 23.9118 4.99182C23.9346 4.99182 23.9688 4.99182 23.9915 5.00319C23.9915 5.00319 23.9915 5.00319 24.0029 5.00319C24.0257 5.02594 24.0485 5.03731 24.0712 5.06006C25.1416 5.92435 26.1322 6.891 27.0204 7.94863C27.9541 9.06312 28.7853 10.28 29.514 11.5537C30.2314 12.8274 30.8463 14.1579 31.37 15.534C31.8711 16.91 32.2924 18.3088 32.634 19.7417L32.6226 19.7531Z" fill="#3C5454"/>
    <path d="M21.3612 6.53378C21.332 6.34127 21.1546 6.20846 20.965 6.23714C20.7753 6.26581 20.6452 6.44512 20.6744 6.63763L22.8666 21.0976C22.8958 21.2902 23.0732 21.423 23.2628 21.3943C23.4525 21.3656 23.5826 21.1863 23.5534 20.9938L21.3612 6.53378Z" fill="#3C5454"/>
    <path d="M3.09724 31.7281C3.02892 31.8078 2.98338 31.8874 2.92644 31.967C2.47098 32.6493 2.03829 33.343 1.61699 34.0254C1.51451 33.8775 1.42342 33.7069 1.29816 33.5363C1.29816 33.5363 1.29816 33.5136 1.27539 33.4909C1.29816 33.4226 1.32094 33.3316 1.34371 33.252C1.38926 33.0928 1.42342 32.9336 1.45758 32.763C1.53728 32.5924 1.61699 32.4332 1.69669 32.2968C1.84472 32.0011 2.18632 31.4552 2.33434 31.2391C2.43682 31.3187 2.56207 31.387 2.66455 31.4552C2.68733 31.4552 2.68733 31.478 2.7101 31.478C2.83535 31.5689 2.97199 31.6372 3.09724 31.7168V31.7281Z" fill="#8FBF3F"/>
    <path d="M47.1634 23.813C46.4575 27.691 44.9089 31.1937 42.7454 34.1732C41.584 35.7653 40.2518 37.2324 38.7715 38.5288C34.4105 42.384 28.8083 44.8177 22.8531 44.8177C21.1565 44.8177 19.4485 44.6244 17.7291 44.215C16.989 44.033 16.2489 43.8397 15.5429 43.635C15.5315 43.635 15.5201 43.6236 15.5201 43.6236C13.8349 43.1232 12.2408 42.5091 10.7719 41.7699C10.157 41.4742 9.55355 41.1445 8.97284 40.8033C8.77927 40.6896 8.59708 40.5758 8.4149 40.4621C8.31242 40.3939 8.22132 40.3256 8.11885 40.2688C8.03914 40.2119 7.97082 40.1664 7.89111 40.1096C8.20994 39.9845 8.52876 39.8708 8.84759 39.7684C8.89313 39.757 8.95007 39.7343 8.99561 39.7115C9.64465 39.5296 10.3278 39.3931 11.0224 39.3021C11.2046 39.2908 11.4096 39.268 11.5918 39.2453C12.5368 39.1543 13.5047 39.0974 14.427 39.0519C15.5315 39.0065 16.6588 38.9496 17.7633 38.8131C22.2496 38.29 25.2556 36.9139 27.8176 34.2187C32.0876 29.7266 35.9932 24.8365 39.4433 19.7303C39.523 19.6052 39.7849 19.2299 39.7621 19.0707C39.7508 19.0252 39.7052 18.9684 39.6483 18.9229C39.6027 18.8774 39.5572 18.8547 39.5003 18.8205L39.4433 18.7864C39.3295 18.7409 39.1928 18.7751 39.0562 18.8433C39.022 18.8433 39.0106 18.8547 38.9765 18.866C39.0676 18.6727 39.1359 18.468 39.2156 18.2633C39.2725 18.0927 39.3295 17.9221 39.3978 17.7515C39.3978 17.7288 39.4092 17.6947 39.4205 17.6606C39.4433 17.5923 39.4775 17.5241 39.4889 17.4559C39.5458 17.308 39.58 17.1602 39.6255 17.0237C39.6369 17.0123 39.6369 17.001 39.6369 16.9896C39.7166 16.7394 39.7849 16.4892 39.8532 16.239C39.9216 16.0002 39.9785 15.7728 40.0354 15.5226C40.0468 15.4771 40.0582 15.443 40.0696 15.3861C40.1265 15.1473 40.1721 14.9198 40.229 14.681C40.2632 14.4877 40.2973 14.3057 40.3315 14.101C40.3542 13.9532 40.3884 13.794 40.4112 13.6348C40.4226 13.5893 40.434 13.5551 40.434 13.5097C40.4567 13.3959 40.4795 13.2708 40.4795 13.1571C40.5023 13.0548 40.525 12.941 40.525 12.8501C40.5364 12.7705 40.5478 12.7022 40.5592 12.634C40.5706 12.452 40.6048 12.2701 40.6161 12.0881C40.6389 11.8948 40.6503 11.6901 40.6617 11.4968C40.6845 11.383 40.6845 11.2693 40.6958 11.1442C40.6958 10.985 40.7186 10.803 40.7186 10.6325V10.5642C40.7414 10.1321 40.7414 9.71129 40.73 9.26777C40.7414 9.22228 40.73 9.16542 40.73 9.10856V8.73327V8.67641C40.7072 8.3921 40.6958 8.11917 40.6845 7.84623C40.6731 7.75525 40.6617 7.6529 40.6503 7.56192V7.50506C40.6503 7.37996 40.6389 7.25487 40.6161 7.12977C40.6048 6.97056 40.582 6.79997 40.5706 6.62939C40.525 6.35645 40.4909 6.08352 40.4453 5.79921C40.4226 5.59451 40.377 5.36706 40.3429 5.13961C40.3201 5.01452 40.2973 4.90079 40.2745 4.7757C40.2404 4.62786 40.2176 4.48002 40.1834 4.34355L40.1037 4.00238C40.0696 3.86591 40.0354 3.72944 40.0013 3.59297C39.9557 3.38827 39.8988 3.19494 39.8532 3.00161C39.7963 2.79691 39.7394 2.59221 39.6824 2.41025C39.6483 2.29653 39.6027 2.17143 39.5686 2.06908C39.523 1.88712 39.4661 1.71654 39.3978 1.53458C39.3636 1.42086 39.3295 1.31851 39.2839 1.21615C39.2384 1.07969 39.1928 0.943218 39.1473 0.80675C39.1359 0.784005 39.1245 0.76126 39.1131 0.727143C39.1017 0.681654 39.079 0.636165 39.0676 0.590675V0.533813C39.3067 0.749888 39.5458 0.965962 39.7849 1.19341C43.3375 4.60511 45.8312 8.99484 46.9471 13.8395C46.9812 14.0328 47.0268 14.2147 47.0609 14.4081C47.1179 14.6696 47.1634 14.9539 47.209 15.2155C47.2431 15.443 47.2887 15.659 47.3228 15.8751C47.3798 16.3414 47.4367 16.8076 47.4709 17.2853C47.4936 17.5127 47.505 17.7515 47.5278 17.979C47.6303 19.935 47.5164 21.9138 47.1634 23.9153V23.813Z" fill="#8FBF3F"/>
    <path d="M40.6957 7.76666C40.6843 7.67568 40.6729 7.57333 40.6615 7.48235V7.42549C40.6615 7.3004 40.6501 7.1753 40.6274 7.05021C40.616 6.89099 40.5932 6.72041 40.5818 6.54982C40.5363 6.27689 40.5021 6.00395 40.4566 5.71964C40.4338 5.51494 40.3883 5.28749 40.3541 5.06005C40.3313 4.93495 40.3086 4.82123 40.2858 4.69613C40.2516 4.54829 40.2288 4.40045 40.1947 4.26398L40.115 3.92281C40.0808 3.78634 40.0467 3.64988 40.0125 3.51341C39.9669 3.3087 39.91 3.11538 39.8645 2.92205C39.8075 2.71734 39.7506 2.51264 39.6937 2.33068C39.6595 2.21696 39.614 2.09186 39.5798 1.98951C39.5343 1.80756 39.4773 1.63697 39.409 1.45501C39.3749 1.34129 39.3407 1.23894 39.2951 1.13659C39.2496 1.00012 39.2041 0.863651 39.1585 0.727183C39.1471 0.704438 39.1357 0.681694 39.1243 0.647577C39.113 0.602087 39.0902 0.556598 39.0788 0.511108L39.056 0.590715L38.908 1.35266C38.6119 3.00165 38.2704 4.59378 37.8263 6.09493C37.758 6.37924 37.6669 6.67492 37.5758 6.95923C37.2683 7.94862 36.9154 8.92664 36.5054 9.83643C36.3802 10.1321 36.2549 10.405 36.1297 10.678C35.8564 11.2466 35.5603 11.7925 35.2415 12.327C35.0935 12.5999 34.9227 12.8615 34.7519 13.123C33.9093 14.4081 32.9073 15.5681 31.7231 16.603C31.4726 16.819 31.2221 17.0351 30.9488 17.2398C28.9903 18.7637 26.565 19.9578 23.5247 20.7766C23.297 20.8449 23.0807 20.9017 22.8529 20.9472C21.6118 21.2543 20.2796 21.4931 18.8221 21.675H18.8107C17.877 21.7433 16.8294 21.7319 15.9071 21.857C15.8274 21.857 15.7705 21.8684 15.7022 21.8911C15.3719 21.9252 15.0531 21.9821 14.7457 22.0276C12.5367 22.437 10.6921 23.2103 9.07517 24.2452C9.0524 24.2566 9.02962 24.2793 9.00685 24.2907C8.94992 24.3248 8.8816 24.3589 8.82467 24.4044C8.76773 24.4385 8.7108 24.4726 8.65387 24.5181C8.59693 24.5522 8.55139 24.5977 8.49445 24.6432C8.30088 24.7683 8.1187 24.9162 7.92513 25.0526C7.73155 25.2005 7.53798 25.3483 7.36718 25.5075C7.25332 25.5985 7.16223 25.6781 7.04836 25.7805H7.03697C5.93247 26.7471 4.94184 27.8502 3.95121 29.0898C3.60961 29.522 3.2794 29.9655 2.93781 30.4204C2.78978 30.6137 2.66453 30.7957 2.52789 30.989C2.45957 31.0686 2.41402 31.1596 2.3457 31.2392C2.44818 31.3188 2.57343 31.3984 2.67591 31.4553C2.67591 31.4666 2.6873 31.4666 2.6873 31.4666C2.69869 31.478 2.71007 31.4894 2.73285 31.4894C2.8581 31.5804 2.99474 31.66 3.11999 31.7396C3.49575 31.1596 3.89428 30.6023 4.31558 30.0565C4.40667 29.9314 4.50915 29.8176 4.58886 29.6925C5.54533 28.4871 6.55874 27.4522 7.56076 26.5879C7.98206 26.2467 8.40336 25.9283 8.84744 25.644H8.87021C9.32568 25.3256 9.80391 25.0413 10.3049 24.7911C11.7852 24.0405 13.3451 23.6083 14.9962 23.4832C15.3264 23.4605 15.668 23.4491 16.0324 23.4491C16.4195 23.4491 16.818 23.4719 17.228 23.506C20.6212 23.7789 23.9119 22.8123 26.4169 21.9252C26.5536 21.8797 26.6674 21.8229 26.7813 21.7774C27.3506 21.5272 27.4076 21.5499 27.5442 21.7546L27.5784 21.8343H27.5897C27.6239 21.9366 27.6011 22.0617 27.5214 22.164C27.2254 22.5393 26.9065 22.9033 26.5763 23.2558H26.565C26.2575 23.5856 25.9387 23.8926 25.5971 24.177C23.7752 25.7691 21.6004 26.9177 19.2548 27.5091L18.731 27.6455L18.1617 27.7934H18.1503L17.4443 27.9753L19.4597 28.5553C20.4048 28.7145 21.293 28.9192 22.9668 28.7145C23.2856 28.669 23.8094 28.5894 24.1852 28.5439C24.8911 28.4416 25.6199 28.2937 26.36 28.0663C26.9293 27.9185 27.2709 27.7706 27.715 27.5887L27.8175 27.5432C27.9655 27.4749 28.1135 27.3953 28.2274 27.3271C28.2616 27.3043 28.2957 27.3043 28.3185 27.2816C32.0191 25.7008 35.5717 22.9487 38.3273 19.5029L38.4981 19.2868C38.5664 19.2072 38.6689 19.1049 38.8055 19.0025C38.8738 18.9457 38.9535 18.8888 39.0333 18.8433C39.1243 18.65 39.1927 18.4453 39.2724 18.2406C39.3293 18.07 39.3862 17.8994 39.4546 17.7288C39.4546 17.7061 39.4659 17.672 39.4773 17.6379C39.5001 17.5696 39.5343 17.5014 39.5456 17.4332C39.6026 17.2853 39.6367 17.1375 39.6823 17.001C39.6937 16.9896 39.6937 16.9783 39.6937 16.9669C39.7734 16.7167 39.8417 16.4665 39.91 16.2163C39.9783 15.9775 40.0353 15.75 40.0922 15.4999C40.1036 15.4544 40.115 15.4202 40.1264 15.3634C40.1833 15.1246 40.2288 14.8971 40.2858 14.6583C40.3199 14.465 40.3541 14.283 40.3883 14.0783C40.411 13.9305 40.4452 13.7713 40.468 13.612C40.4793 13.5666 40.4907 13.5324 40.4907 13.487C40.5135 13.3732 40.5363 13.2481 40.5363 13.1344C40.5591 13.0321 40.5818 12.9183 40.5818 12.8274C40.5932 12.7477 40.6046 12.6795 40.616 12.6113C40.6274 12.4293 40.6615 12.2474 40.6729 12.0654C40.6957 11.8721 40.7071 11.6674 40.7185 11.474C40.7412 11.3603 40.7412 11.2466 40.7526 11.1215C40.7526 10.9623 40.7754 10.7803 40.7754 10.6097V10.5415C40.7868 10.1094 40.7982 9.67722 40.7868 9.24507C40.7982 9.19958 40.7868 9.14272 40.7868 9.08586V8.71057V8.65371C40.764 8.3694 40.7526 8.09646 40.7412 7.82352L40.6957 7.76666Z" fill="#74933C"/>
    <g style="mix-blend-mode:soft-light" opacity="0.4">
    <path d="M3.09724 31.7281C3.02892 31.8078 2.98338 31.8874 2.92644 31.967C2.47098 32.6493 2.03829 33.343 1.61699 34.0254C1.51451 33.8775 1.42342 33.7069 1.29816 33.5363C1.29816 33.5363 1.29816 33.5136 1.27539 33.4909C1.29816 33.4226 1.32094 33.3316 1.34371 33.252C1.38926 33.0928 1.42342 32.9336 1.45758 32.763C1.53728 32.5924 1.61699 32.4332 1.69669 32.2968C1.84472 32.0011 2.18632 31.4552 2.33434 31.2391C2.43682 31.3187 2.56207 31.387 2.66455 31.4552C2.68733 31.4552 2.68733 31.478 2.7101 31.478C2.83535 31.5689 2.97199 31.6372 3.09724 31.7168V31.7281Z" fill="#3C5454"/>
    </g>
    <g style="mix-blend-mode:soft-light" opacity="0.4">
    <path d="M47.1634 23.813C46.4574 27.691 44.9089 31.1937 42.7454 34.1732C41.584 35.7654 40.2518 37.2324 38.7715 38.5289C34.4104 42.3841 28.8083 44.8178 22.8531 44.8178C21.1565 44.8178 19.4485 44.6244 17.7291 44.215C16.989 44.0331 16.2489 43.8397 15.5429 43.635C15.5315 43.635 15.5201 43.6237 15.5201 43.6237C13.8349 43.1233 12.2408 42.5092 10.7719 41.77C10.157 41.4743 9.55355 41.1445 8.97284 40.8033C8.77927 40.6896 8.59708 40.5759 8.4149 40.4622C8.31242 40.3939 8.22132 40.3257 8.11885 40.2688C8.03914 40.212 7.97082 40.1665 7.89111 40.1096C8.20994 39.9845 8.52876 39.8708 8.84759 39.7684C8.89313 39.7571 8.95007 39.7343 8.99561 39.7116C9.64465 39.5296 10.3278 39.3932 11.0224 39.3022C11.2046 39.2908 11.4096 39.2681 11.5918 39.2453C12.5368 39.1543 13.5047 39.0975 14.427 39.052C15.5315 39.0065 16.6588 38.9496 17.7633 38.8132C22.2496 38.29 25.2556 36.914 27.8176 34.2187C32.0876 29.7267 35.9932 24.8365 39.4433 19.7304C39.523 19.6053 39.7849 19.23 39.7621 19.0708C39.7507 19.0253 39.7052 18.9684 39.6483 18.9229C39.6027 18.8774 39.5572 18.8547 39.5002 18.8206L39.4433 18.7865C39.3294 18.741 39.1928 18.7751 39.0562 18.8433C39.1928 18.65 39.3294 18.4453 39.4775 18.2747C39.523 18.2292 39.5458 18.1951 39.58 18.1496C39.6597 18.0473 39.7508 17.9449 39.8305 17.8539C40.8097 16.7508 41.9142 15.932 43.1212 15.2838C43.3831 15.1359 43.645 15.0108 43.9296 14.8857C44.7722 14.4763 45.6945 14.1465 46.651 13.8395C46.7421 13.8168 46.8332 13.794 46.9357 13.7599C46.9698 13.9532 47.0154 14.1352 47.0495 14.3285C47.1065 14.5901 47.152 14.8744 47.1976 15.1359C47.2317 15.3634 47.2773 15.5795 47.3114 15.7955C47.3684 16.2618 47.4253 16.7281 47.4595 17.2057C47.4822 17.4332 47.4936 17.672 47.5164 17.8994C47.6189 19.8555 47.505 21.8343 47.152 23.8358L47.1634 23.813Z" fill="#3C5454"/>
    </g>
    <path d="M47.9145 19.0139C47.9714 20.788 47.7665 22.5735 47.4704 24.3248C47.1516 26.0762 46.6392 27.8047 45.956 29.4537C45.2728 31.1141 44.3961 32.6949 43.394 34.1619C43.1435 34.5372 42.8703 34.8783 42.6084 35.2536C42.3351 35.5948 42.0618 35.9587 41.7658 36.2999C41.4811 36.6524 41.185 36.9709 40.889 37.312C40.5702 37.6305 40.2627 37.9603 39.9439 38.2673C37.3819 40.7578 34.3076 42.7708 30.9371 44.0672C30.5158 44.2264 30.0831 44.3629 29.6504 44.4993C29.2178 44.6358 28.7964 44.7723 28.341 44.8746C27.9083 44.9884 27.4642 45.0793 27.0088 45.1703C26.7924 45.2158 26.5761 45.2499 26.3483 45.284L26.0067 45.3523L25.6765 45.3978C24.7884 45.5229 23.8661 45.5797 22.9665 45.5911C22.067 45.6138 21.1447 45.557 20.2451 45.466C19.3456 45.375 18.4347 45.2044 17.5579 45.0225C16.6925 44.8178 15.8157 44.6017 14.9618 44.3401C14.0964 44.0786 13.2424 43.7943 12.3998 43.4645C12.1948 43.3849 11.9785 43.3053 11.7735 43.2143C11.6938 43.1802 11.6141 43.146 11.5344 43.1119C11.4091 43.0551 11.2725 42.9982 11.1473 42.9413C10.9537 42.8504 10.7601 42.7708 10.5665 42.6684C10.3844 42.5888 10.2022 42.4978 10.02 42.4068C9.98582 42.3955 9.96305 42.3727 9.92889 42.3613C9.80364 42.3045 9.68977 42.2363 9.5759 42.1794C9.29124 42.0315 9.01796 41.861 8.7333 41.7131C8.47141 41.5653 8.20951 41.4061 7.95901 41.2469C7.83376 41.1673 7.70851 41.0876 7.58325 41.008C7.53771 40.9853 7.49216 40.9512 7.458 40.9284C7.30998 40.8375 7.16195 40.7351 7.02531 40.6441C6.97976 40.61 6.93422 40.5759 6.88867 40.5418C7.0367 40.4963 7.17334 40.4622 7.33275 40.428C7.53771 40.3257 7.74266 40.2347 7.95901 40.1324C8.27783 40.0073 8.59666 39.8936 8.91548 39.7912C8.96103 39.7798 9.01796 39.7571 9.06351 39.7343C9.25708 39.8594 9.46204 39.9845 9.65561 40.1096C9.667 40.1096 9.667 40.121 9.67838 40.121C9.84918 40.2347 10.02 40.3257 10.2022 40.4394H10.2136C10.2136 40.4394 10.2591 40.4735 10.2933 40.4849C10.373 40.5304 10.4641 40.5759 10.5438 40.6214C10.6235 40.6669 10.7032 40.7124 10.7715 40.7465C11.1359 40.9512 11.523 41.1331 11.9102 41.3265C12.1037 41.4061 12.3087 41.4857 12.4909 41.5767C12.6844 41.6676 12.878 41.7472 13.0716 41.8268C13.8459 42.1566 14.6657 42.4523 15.4742 42.7139C16.2826 42.9755 17.1252 43.2029 17.9564 43.419C18.7649 43.6123 19.6075 43.7829 20.4387 43.8852C23.7977 44.3174 27.2593 43.9194 30.4703 42.7708C33.7041 41.6335 36.6646 39.7912 39.181 37.4371C39.4884 37.1528 39.7845 36.8458 40.0919 36.5387C40.388 36.2317 40.684 35.9246 40.9573 35.5948C41.242 35.2764 41.5153 34.9466 41.7885 34.6168C42.0504 34.2756 42.3237 33.9458 42.5742 33.5819C42.597 33.5364 42.6311 33.4795 42.6653 33.4341H42.6767C43.6218 32.0807 44.4644 30.6251 45.1248 29.1126C45.8194 27.5318 46.3546 25.8828 46.7075 24.1997C47.0264 22.5052 47.2541 20.7766 47.2313 19.048C47.2313 17.3081 47.0491 15.5795 46.6961 13.8736V13.8395L46.6848 13.8168L46.4001 12.6113C46.3773 12.5089 46.3545 12.3952 46.309 12.2929L46.2179 11.9858L46.0243 11.3717C45.9105 10.9623 45.7397 10.5529 45.603 10.1435L45.3639 9.54076C45.2728 9.32469 45.1817 9.13136 45.102 8.93803L44.8288 8.35804L44.6921 8.05099L44.5441 7.76668C44.3391 7.38002 44.1342 7.00473 43.9292 6.6067L43.2574 5.49221C43.1435 5.29888 43.0183 5.13967 42.893 4.95771L42.5173 4.42321C41.5266 3.05853 40.3994 1.7962 39.1582 0.624848C39.1355 0.613476 39.1127 0.579359 39.0899 0.567987L39.1127 0.48838V0.431519C39.3518 0.647593 39.5909 0.863668 39.83 1.09111C40.9004 2.04639 41.9138 3.0699 42.7792 4.21851L43.1663 4.75301C43.2916 4.92359 43.4396 5.09418 43.5421 5.28751L44.2594 6.402C44.4872 6.78866 44.6921 7.17532 44.9085 7.57335L45.0793 7.86903L45.2159 8.15334L45.5006 8.7447C45.5917 8.9494 45.6941 9.15411 45.7852 9.34744L46.0357 9.96154C46.1951 10.3709 46.3773 10.7804 46.5026 11.2125L46.7189 11.838L46.81 12.145C46.8442 12.2588 46.8783 12.3611 46.9125 12.4635L47.2427 13.7599C47.6412 15.4885 47.8576 17.2512 47.9145 19.0367V19.0139Z" fill="#3C5454"/>
    <path d="M10.783 41.7472V41.7699C10.6463 42.0656 10.3958 42.2703 10.0998 42.3499C10.0542 42.3727 10.0087 42.3727 9.96315 42.3727C9.92899 42.3727 9.89483 42.3499 9.87206 42.3272C9.74681 42.2703 9.63294 42.2134 9.50769 42.1452C8.92697 41.9746 8.3121 41.8836 7.67445 41.8836C5.511 41.8836 3.58666 42.9185 2.37969 44.522H2.32275C3.02872 42.9185 4.30402 41.5993 5.87537 40.8374C6.14865 40.7123 6.4447 40.5986 6.74075 40.519C6.76352 40.519 6.77491 40.519 6.79768 40.4962C6.94571 40.4507 7.08235 40.4166 7.24176 40.3825C7.3784 40.3598 7.51504 40.3143 7.65167 40.3029L7.94773 40.2574C7.94773 40.2574 8.0502 40.2574 8.09575 40.2574C8.15268 40.2574 8.19823 40.2574 8.24378 40.2347C8.43735 40.2119 8.65369 40.2119 8.85865 40.2119C8.91559 40.2119 8.96113 40.2119 9.00668 40.2119C9.06361 40.2119 9.10916 40.2119 9.16609 40.2119C9.26857 40.2119 9.35966 40.2347 9.46214 40.2347H9.48491C9.58739 40.2574 9.68987 40.2688 9.80374 40.2915C9.86067 40.3143 9.90622 40.3143 9.96315 40.337C10.0087 40.337 10.0542 40.337 10.1112 40.3711C10.1112 40.3711 10.1453 40.3711 10.1681 40.3939C10.1909 40.3939 10.2023 40.4166 10.225 40.4166C10.3161 40.4507 10.3845 40.4962 10.4642 40.5645C10.6577 40.735 10.783 40.9739 10.8171 41.2127C10.8399 41.3833 10.8171 41.5539 10.7488 41.7244L10.783 41.7472Z" fill="#3C5454"/>
    <path d="M10.5099 42.6456C10.3277 42.566 10.1456 42.475 9.96338 42.3727C10.157 42.4523 10.3391 42.5433 10.5099 42.6456Z" fill="#3C5454"/>
    <path d="M17.5469 4.00242C17.5241 3.93418 17.4444 3.87732 17.3647 3.87732C17.2964 3.91144 17.2395 3.94555 17.1825 3.97967C15.3379 4.96906 13.6641 6.25414 12.161 7.72117C10.5897 9.26781 9.24609 11.0533 8.25545 13.0321C7.76583 14.0215 7.3673 15.0677 7.05986 16.1367C6.76381 17.2057 6.58163 18.3088 6.47915 19.4233C6.31974 21.6409 6.54747 23.8813 7.08264 26.042L8.09604 25.7691C7.52671 23.7221 7.26482 21.5954 7.35591 19.4802C7.43562 18.4225 7.57226 17.3649 7.83415 16.3414C8.10743 15.3065 8.44903 14.3058 8.90449 13.3391C9.81541 11.4058 11.0679 9.6431 12.5596 8.09646C13.9829 6.62943 15.6112 5.32161 17.3989 4.2981C17.4444 4.26398 17.5014 4.24123 17.5469 4.20712C17.5697 4.173 17.5924 4.12751 17.5924 4.08202C17.5924 4.0479 17.5924 4.02516 17.5697 4.00242H17.5469Z" fill="#3C5454"/>
    <path d="M10.783 41.7472V41.7699C10.6463 42.0656 10.3958 42.2703 10.0998 42.3499C10.0542 42.3727 10.0087 42.3727 9.96315 42.3727C9.92899 42.3727 9.89483 42.3499 9.87206 42.3272C9.74681 42.2703 9.63294 42.2134 9.50769 42.1452C8.92697 41.9746 8.3121 41.8836 7.67445 41.8836C5.511 41.8836 3.58666 42.9185 2.37969 44.522H2.32275C3.02872 42.9185 4.30402 41.5993 5.87537 40.8374C6.14865 40.7123 6.4447 40.5986 6.74075 40.519C6.76352 40.519 6.77491 40.519 6.79768 40.4962C6.94571 40.4507 7.08235 40.4166 7.24176 40.3825C7.3784 40.3598 7.51504 40.3143 7.65167 40.3029L7.94773 40.2574C7.94773 40.2574 8.0502 40.2574 8.09575 40.2574C8.15268 40.2574 8.19823 40.2574 8.24378 40.2347C8.43735 40.2119 8.65369 40.2119 8.85865 40.2119C8.91559 40.2119 8.96113 40.2119 9.00668 40.2119C9.06361 40.2119 9.10916 40.2119 9.16609 40.2119C9.26857 40.2119 9.35966 40.2347 9.46214 40.2347H9.48491C9.58739 40.2574 9.68987 40.2688 9.80374 40.2915C9.86067 40.3143 9.90622 40.3143 9.96315 40.337C10.0087 40.337 10.0542 40.337 10.1112 40.3711C10.1112 40.3711 10.1453 40.3711 10.1681 40.3939C10.1909 40.3939 10.2023 40.4166 10.225 40.4166C10.3161 40.4507 10.3845 40.4962 10.4642 40.5645C10.6577 40.735 10.783 40.9739 10.8171 41.2127C10.8399 41.3833 10.8171 41.5539 10.7488 41.7244L10.783 41.7472Z" fill="#3C5454"/>
    <path d="M11.4777 43.0891C11.3524 43.0323 11.2272 42.9868 11.1019 42.9299C10.9084 42.839 10.7034 42.748 10.5098 42.657C10.3276 42.5774 10.1455 42.4864 9.96328 42.3841C9.96328 42.3841 9.90634 42.3499 9.87218 42.3386C9.74693 42.2817 9.63306 42.2135 9.50781 42.1566C9.71277 42.2135 9.90634 42.2817 10.0999 42.3499C10.5895 42.5433 11.0564 42.7935 11.4777 43.0891Z" fill="#3C5454"/>
    <path d="M40.7639 18.8206C40.7184 18.6273 40.6273 18.4453 40.4906 18.2861L40.0921 17.9336L39.9555 17.854L39.8416 17.8198L39.6822 17.763C39.6822 17.763 39.5911 17.7402 39.5342 17.7289C39.4886 17.7175 39.4545 17.7175 39.4089 17.7175C39.0901 17.6947 38.794 17.7857 38.5435 17.9108C38.0653 18.161 37.7237 18.559 37.6668 18.6273L36.3004 20.2421C33.8523 22.9146 30.9031 25.0413 27.8743 26.3263C27.7946 26.3718 27.7263 26.406 27.658 26.4514C27.5783 26.4969 27.4644 26.5538 27.3733 26.5993L27.2708 26.6448C26.8609 26.8154 26.5649 26.9405 26.0525 27.0656H26.0297C25.3237 27.293 24.6633 27.4408 24.0029 27.5204C23.6157 27.5773 23.092 27.6455 22.7504 27.7024C22.2721 27.782 21.8394 27.8389 21.4523 27.8616C23.7979 26.9518 25.9044 25.4848 27.601 23.6197C27.8402 23.3468 28.0793 23.0852 28.2956 22.8009C28.3184 22.7782 28.3298 22.7554 28.3412 22.7327C28.66 22.2892 28.6828 21.7092 28.4095 21.2543L28.3753 21.1633L28.3412 21.1406C27.7035 20.2421 26.8154 20.6288 26.3371 20.8335C26.246 20.879 26.1436 20.9131 26.0525 20.9586C23.5019 21.8456 20.4617 22.7441 17.2848 22.4711C16.818 22.437 16.3625 22.4256 15.907 22.4256H15.7932C15.4629 22.4256 15.1327 22.437 14.8139 22.4711C12.7643 22.6076 10.8514 23.1762 9.06369 24.2338C9.04092 24.2452 9.01815 24.268 8.99538 24.2793C8.93844 24.3134 8.87012 24.3476 8.81319 24.3931C8.75626 24.4272 8.69932 24.4613 8.64239 24.5068C8.57407 24.5409 8.50575 24.5864 8.43743 24.6319H8.42605C8.24386 24.7456 8.07306 24.8593 7.90226 24.9844C7.67453 25.155 7.45819 25.3142 7.24184 25.4848C7.16214 25.553 7.08243 25.5985 7.01411 25.6668H7.00272C7.00272 25.6668 6.95718 25.7236 6.9344 25.735C5.89823 26.5993 4.87343 27.7024 3.89419 28.9192C3.18822 26.8495 2.83524 24.6774 2.80108 22.4939C2.76692 19.7986 3.26793 17.1034 4.28133 14.6015C5.28335 12.0995 6.78638 9.79096 8.68794 7.83492C10.5895 5.87888 12.8668 4.30949 15.3832 3.22912C17.8883 2.14875 20.6211 1.58013 23.3766 1.54602C26.1208 1.52327 28.8763 2.03503 31.4269 3.06991C33.6815 3.9797 35.7766 5.27614 37.5871 6.91376C37.6098 6.9365 37.6326 6.95925 37.6554 6.98199L37.9173 6.1177C37.9173 6.1177 37.8717 6.07221 37.849 6.04946C36.0499 4.45733 34.0117 3.13814 31.7913 2.20561C29.1155 1.10249 26.2347 0.511132 23.3538 0.477015C20.4617 0.45427 17.5695 0.98877 14.8822 2.05777C12.1836 3.13814 9.70134 4.75302 7.6176 6.78866C5.53386 8.81294 3.86003 11.2694 2.70999 13.9532C1.54855 16.6371 0.933679 19.5598 0.910906 22.4939C0.888133 23.995 1.03616 25.5075 1.33221 26.9859C1.33221 26.9859 1.33221 27.0314 1.33221 27.0656C1.33221 27.0656 1.33221 27.0883 1.33221 27.0997C1.33221 27.0997 1.33221 27.1224 1.33221 27.1338C1.36637 27.3499 1.4233 27.8161 1.44608 28.453C1.57133 29.1467 1.63965 29.8518 1.63965 30.5682C1.63965 31.1255 1.5941 31.6827 1.51439 32.2172C1.51439 32.2968 1.49162 32.3651 1.48023 32.4333C1.46885 32.5356 1.44608 32.6494 1.4233 32.7517C1.38914 32.9109 1.35498 33.0815 1.30944 33.2407C1.28666 33.3203 1.26389 33.4113 1.24112 33.4796C1.22973 33.5478 1.21834 33.5933 1.20696 33.6501C0.945066 34.5713 0.569309 35.4583 0.0910726 36.2771C0.0455263 36.3454 -1.99601e-05 36.4022 -0.0341797 36.4705C0.0341398 36.4477 0.0910726 36.3795 0.136619 36.3113C0.478216 35.7768 0.79704 35.2423 1.12725 34.7191C1.27528 34.4803 1.4233 34.2529 1.57133 34.014C1.99263 33.3317 2.42532 32.638 2.89217 31.9557C2.93772 31.8761 2.99465 31.7964 3.06297 31.7168C3.43873 31.1369 3.83726 30.5796 4.25856 30.0337C4.34965 29.9086 4.45213 29.7949 4.53184 29.6698C5.48831 28.4643 6.50172 27.4295 7.50373 26.5652C7.92504 26.224 8.34634 25.9056 8.79042 25.6213H8.81319C9.26865 25.3028 9.74689 25.0185 10.2479 24.7683C11.7282 24.0178 13.2881 23.5856 14.9392 23.4605C15.2694 23.4378 15.611 23.4264 15.9753 23.4264C16.3625 23.4264 16.761 23.4491 17.1709 23.4833C20.5641 23.7562 23.8549 22.7896 26.3599 21.9025C26.4965 21.857 26.6104 21.8002 26.7243 21.7547C27.2936 21.5045 27.3505 21.5272 27.4872 21.7319L27.5213 21.8115H27.5327C27.5669 21.9139 27.5441 22.039 27.4644 22.1413C27.1684 22.5166 26.8495 22.8805 26.5193 23.2331H26.5079C26.2005 23.5629 25.8817 23.8699 25.5401 24.1542C23.7182 25.7464 21.5434 26.895 19.1977 27.4863L18.674 27.6228L18.1046 27.7706H18.0932L17.3873 27.9526L19.4027 28.5326C20.3478 28.6918 21.2359 28.8965 22.9098 28.6918C23.2286 28.6463 23.7524 28.5667 24.1281 28.5212C24.8341 28.4189 25.5628 28.271 26.303 28.0436C26.8723 27.8957 27.2139 27.7479 27.658 27.5659L27.7605 27.5204C27.9085 27.4522 28.0565 27.3726 28.1704 27.3044C28.2045 27.2816 28.2387 27.2816 28.2615 27.2589C31.9621 25.6781 35.5147 22.926 38.2703 19.4802L38.4411 19.2641C38.5094 19.1845 38.6119 19.0822 38.7485 18.9798C38.8168 18.923 38.8965 18.8661 38.9762 18.8206C39.0104 18.8092 39.0218 18.7979 39.0559 18.7979C39.1926 18.7296 39.3292 18.6955 39.4431 18.741L39.5 18.7751C39.5569 18.8092 39.6025 18.832 39.648 18.8775C39.705 18.923 39.7505 18.9798 39.7619 19.0253C39.7847 19.1845 39.5228 19.5598 39.4431 19.6849C35.9929 24.8025 32.0874 29.6812 27.8174 34.1733C25.2554 36.8685 22.2493 38.2446 17.763 38.7677C16.6585 38.9042 15.5313 38.961 14.4268 39.0065C13.5045 39.052 12.5366 39.1089 11.5915 39.1998C11.4093 39.2226 11.2044 39.2453 11.0222 39.2567C10.3276 39.3477 9.64441 39.4841 8.99538 39.6661C8.94983 39.6889 8.8929 39.7116 8.84735 39.723C8.52853 39.8253 8.2097 39.939 7.89088 40.0641C7.67453 40.1665 7.46957 40.2575 7.26462 40.3598C7.21907 40.3826 7.17352 40.3939 7.13936 40.4167C7.05966 40.4508 7.00272 40.5077 6.95718 40.5759C6.94579 40.5759 6.94579 40.5873 6.9344 40.5986C6.84331 40.7465 6.82054 40.9284 6.91163 41.099C7.00272 41.281 7.17352 41.3833 7.36709 41.3833C7.43541 41.3833 7.51512 41.3606 7.59483 41.3265C7.69731 41.281 7.7884 41.2241 7.89088 41.1786C8.24386 41.0194 8.59684 40.8829 8.98399 40.7579C9.26865 40.6555 9.55332 40.5759 9.86075 40.5077C9.98601 40.4622 10.1113 40.4394 10.2365 40.4167H10.2593C10.5439 40.3598 10.84 40.303 11.1474 40.2688C11.7509 40.2006 12.3772 40.1551 13.0034 40.121H13.0148C13.5045 40.0869 14.0055 40.0528 14.4951 40.03C15.611 39.9732 16.761 39.9163 17.8997 39.7912C22.5682 39.234 25.8589 37.7101 28.5689 34.867C32.873 30.3294 36.8242 25.4166 40.3085 20.2649C40.5817 19.8441 40.8778 19.3551 40.7639 18.7979V18.8206Z" fill="#3C5454"/>
    </g>
    <defs>
    <clipPath id="clip0_280_1338">
    <rect width="141" height="45.1823" fill="white" transform="translate(0 0.408813)"/>
    </clipPath>
    </defs>
    </svg>
    