<svg width="518" height="193" viewBox="0 0 518 193" fill="none" xmlns="http://www.w3.org/2000/svg">
    <path d="M227 9H66.2425C46.9307 21.2778 19.8942 58.6167 66.2425 90.25H158.626C180.895 103.792 212.073 143.333 158.626 178H1" stroke="url(#paint0_linear_138_349)" stroke-width="18"/>
    <path d="M9 88.5V167L49 129.5H193C214.2 120.7 218.5 104.5 218 97.5V19.5L171 57.5H44.5C18.9 59.5 10.1667 79 9 88.5Z" stroke="url(#paint1_linear_138_349)" stroke-width="18"/>
    <path d="M286.042 63.7322C285.843 61.727 284.99 60.1693 283.482 59.0589C281.973 57.9486 279.927 57.3935 277.342 57.3935C275.585 57.3935 274.102 57.642 272.892 58.1392C271.682 58.6198 270.754 59.291 270.108 60.1527C269.478 61.0144 269.163 61.9922 269.163 63.0859C269.13 63.9974 269.321 64.7929 269.735 65.4723C270.166 66.1518 270.754 66.7401 271.5 67.2372C272.246 67.7178 273.107 68.1404 274.085 68.505C275.063 68.853 276.107 69.1513 277.217 69.3999L281.791 70.4936C284.012 70.9908 286.05 71.6536 287.906 72.4822C289.762 73.3108 291.37 74.33 292.729 75.5398C294.088 76.7495 295.14 78.1747 295.886 79.8153C296.648 81.456 297.037 83.3369 297.054 85.4581C297.037 88.5736 296.242 91.2749 294.668 93.5618C293.11 95.8321 290.856 97.5971 287.906 98.8565C284.973 100.099 281.435 100.721 277.292 100.721C273.182 100.721 269.603 100.091 266.553 98.8317C263.521 97.5722 261.151 95.7079 259.444 93.2386C257.754 90.7528 256.867 87.6787 256.784 84.0163H267.2C267.316 85.7232 267.804 87.1484 268.666 88.2919C269.545 89.4188 270.713 90.2723 272.171 90.8523C273.646 91.4157 275.312 91.6974 277.168 91.6974C278.991 91.6974 280.573 91.4323 281.915 90.902C283.274 90.3717 284.327 89.6342 285.072 88.6896C285.818 87.745 286.191 86.6596 286.191 85.4332C286.191 84.2898 285.851 83.3286 285.172 82.5497C284.509 81.7708 283.531 81.108 282.239 80.5611C280.963 80.0142 279.397 79.517 277.54 79.0696L271.997 77.6776C267.705 76.6335 264.316 75.0012 261.83 72.7805C259.344 70.5599 258.11 67.5687 258.126 63.8068C258.11 60.7244 258.93 58.0315 260.587 55.728C262.261 53.4245 264.556 51.6264 267.473 50.3338C270.39 49.0412 273.704 48.3949 277.416 48.3949C281.195 48.3949 284.492 49.0412 287.31 50.3338C290.143 51.6264 292.348 53.4245 293.922 55.728C295.496 58.0315 296.308 60.6996 296.358 63.7322H286.042ZM329.27 100H317.736L335.31 49.0909H349.181L366.731 100H355.197L342.445 60.7244H342.047L329.27 100ZM328.549 79.9893H355.793V88.3913H328.549V79.9893ZM389.059 100V49.0909H399.823V70.0959H421.673V49.0909H432.412V100H421.673V78.9702H399.823V100H389.059ZM457.487 49.0909H470.761L484.781 83.2955H485.378L499.398 49.0909H512.672V100H502.232V66.8643H501.809L488.634 99.7514H481.525L468.35 66.7401H467.928V100H457.487V49.0909Z" fill="#181822"/>
    <path d="M280.18 161.75H303.84L302.65 168.75H278.71L280.18 161.75ZM252.39 192.62C251.41 192.62 250.57 192.457 249.87 192.13C249.123 191.803 248.423 191.313 247.77 190.66C247.77 190.66 247.933 190.497 248.26 190.17C248.82 189.703 249.38 189.073 249.94 188.28C250.5 187.533 251.037 186.46 251.55 185.06C252.063 183.707 252.507 182.213 252.88 180.58C253.207 178.947 253.557 176.987 253.93 174.7C253.977 174.42 254.023 174.14 254.07 173.86C254.117 173.627 254.163 173.393 254.21 173.16C254.91 169.38 256.007 166.673 257.5 165.04C259.04 163.36 261.327 162.263 264.36 161.75L261.7 164.97L266.81 132.56C268.21 130.087 270.357 128.15 273.25 126.75C276.19 125.35 279.457 124.65 283.05 124.65C286.55 124.65 289.537 125.327 292.01 126.68C294.483 128.033 296.35 129.993 297.61 132.56C298.917 135.127 299.57 138.253 299.57 141.94C299.57 145.533 298.987 149.08 297.82 152.58C296.653 156.033 295.02 159.183 292.92 162.03C290.82 164.83 288.37 167.07 285.57 168.75H267.37C264.523 168.75 262.797 170.29 262.19 173.37L260.16 183.1C260.113 183.38 260.043 183.637 259.95 183.87C259.903 184.15 259.857 184.407 259.81 184.64C259.343 186.413 258.83 187.86 258.27 188.98C257.757 190.1 257.033 190.987 256.1 191.64C255.167 192.293 253.93 192.62 252.39 192.62ZM267.51 161.75H285.43L282.21 162.24C283.61 161.4 285.057 160.023 286.55 158.11C288.043 156.15 289.303 153.77 290.33 150.97C291.357 148.123 291.87 145.09 291.87 141.87C291.87 138.463 291.193 135.92 289.84 134.24C288.533 132.513 286.293 131.65 283.12 131.65C280.973 131.65 278.967 132.047 277.1 132.84C275.28 133.587 274.067 134.543 273.46 135.71L274.58 132.42L269.54 164.13L267.51 161.75ZM303.84 161.75C304.353 161.75 304.657 162.03 304.75 162.59C304.843 163.15 304.797 164.037 304.61 165.25C304.423 166.37 304.167 167.233 303.84 167.84C303.56 168.447 303.163 168.75 302.65 168.75L303.84 161.75ZM360.898 161.75H373.428L372.238 168.75H359.778L360.898 161.75ZM327.788 175.89C325.922 175.89 324.732 175.19 324.218 173.79C323.752 172.437 323.682 170.757 324.008 168.75H302.728L303.848 161.75H311.338C311.385 157.503 312.225 153.653 313.858 150.2C315.492 146.7 317.685 143.807 320.438 141.52C323.238 139.233 326.412 137.67 329.958 136.83C331.172 131.557 333.365 127.59 336.538 124.93C339.758 122.223 343.888 120.87 348.928 120.87C352.288 120.87 355.298 121.5 357.958 122.76C360.665 124.02 362.835 126.073 364.468 128.92C366.102 131.767 366.918 135.43 366.918 139.91C366.918 141.59 366.825 143.13 366.638 144.53C366.452 145.883 366.102 147.96 365.588 150.76C365.075 153.28 364.678 155.473 364.398 157.34C364.165 159.207 364.048 161.213 364.048 163.36L360.548 168.75H331.778C331.685 169.963 331.732 171.037 331.918 171.97C332.105 172.903 332.502 173.557 333.108 173.93C332.455 174.49 331.638 174.957 330.658 175.33C329.725 175.703 328.768 175.89 327.788 175.89ZM325.268 161.75L328.488 144.88C325.688 146.233 323.425 148.403 321.698 151.39C320.018 154.377 319.132 157.83 319.038 161.75H325.268ZM339.828 161.75L342.628 145.09C341.975 144.577 341.112 144.157 340.038 143.83C339.012 143.457 337.868 143.247 336.608 143.2L333.108 161.75H339.828ZM356.418 161.75C356.512 159.697 356.675 157.807 356.908 156.08C357.142 154.307 357.492 152.16 357.958 149.64C358.378 147.447 358.682 145.627 358.868 144.18C359.055 142.687 359.148 141.17 359.148 139.63C359.148 136.923 358.775 134.707 358.028 132.98C357.282 131.253 356.162 129.97 354.668 129.13C353.175 128.29 351.285 127.87 348.998 127.87C347.038 127.87 345.335 128.173 343.888 128.78C342.488 129.387 341.322 130.297 340.388 131.51C339.455 132.723 338.685 134.31 338.078 136.27C341.252 136.55 343.958 137.343 346.198 138.65C348.438 139.91 350.002 141.357 350.888 142.99L347.808 161.75H356.418ZM302.728 168.75C302.215 168.75 301.912 168.447 301.818 167.84C301.678 167.28 301.702 166.417 301.888 165.25C302.122 164.083 302.378 163.22 302.658 162.66C302.938 162.053 303.335 161.75 303.848 161.75L302.728 168.75ZM373.428 161.75C373.942 161.75 374.245 162.03 374.338 162.59C374.432 163.15 374.385 164.037 374.198 165.25C374.012 166.37 373.755 167.233 373.428 167.84C373.148 168.447 372.752 168.75 372.238 168.75L373.428 161.75ZM373.438 161.75H384.218L381.838 164.2V161.68C381.838 160.653 381.955 159.44 382.188 158.04C382.468 156.64 382.841 154.843 383.308 152.65C383.915 149.803 384.381 147.47 384.708 145.65C385.035 143.83 385.198 142.127 385.198 140.54C385.198 139.607 385.128 138.673 384.988 137.74C384.848 136.807 384.661 135.943 384.428 135.15C385.408 134.59 386.388 134.147 387.368 133.82C388.395 133.447 389.328 133.26 390.168 133.26C391.428 133.26 392.338 133.657 392.898 134.45C393.505 135.243 393.808 136.41 393.808 137.95C393.808 138.977 393.691 140.073 393.458 141.24C393.271 142.36 392.968 143.807 392.548 145.58C392.081 147.4 391.731 148.963 391.498 150.27C391.265 151.53 391.148 152.743 391.148 153.91C391.148 156.383 391.731 158.32 392.898 159.72C394.065 161.073 395.721 161.75 397.868 161.75H406.478L404.098 164.2V161.68C404.098 160.7 404.261 159.323 404.588 157.55C404.915 155.73 405.265 153.887 405.638 152.02C406.245 149.22 406.711 146.77 407.038 144.67C407.411 142.57 407.598 140.727 407.598 139.14C407.598 138.16 407.528 137.227 407.388 136.34C407.248 135.407 407.061 134.567 406.828 133.82C407.855 133.213 408.858 132.747 409.838 132.42C410.818 132.093 411.728 131.93 412.568 131.93C413.781 131.93 414.691 132.327 415.298 133.12C415.905 133.913 416.208 135.057 416.208 136.55C416.208 137.577 416.068 138.86 415.788 140.4C415.508 141.94 415.205 143.457 414.878 144.95C414.411 146.77 414.038 148.427 413.758 149.92C413.525 151.367 413.408 152.72 413.408 153.98C413.408 156.453 413.991 158.367 415.158 159.72C416.325 161.073 417.981 161.75 420.128 161.75H428.668L426.428 164.2V161.68C426.428 160.653 426.591 159.16 426.918 157.2C427.291 155.24 427.711 153.233 428.178 151.18C428.925 147.633 429.485 144.81 429.858 142.71C430.231 140.563 430.418 138.697 430.418 137.11C430.418 136.13 430.348 135.197 430.208 134.31C430.068 133.377 429.858 132.537 429.578 131.79C430.605 131.183 431.608 130.717 432.588 130.39C433.568 130.063 434.478 129.9 435.318 129.9C436.531 129.9 437.441 130.297 438.048 131.09C438.655 131.837 438.958 132.91 438.958 134.31C438.958 135.43 438.795 136.83 438.468 138.51C438.188 140.143 437.745 142.36 437.138 145.16C436.298 148.987 435.621 152.347 435.108 155.24C434.641 158.133 434.385 160.84 434.338 163.36L430.908 168.75H417.188C415.461 168.75 414.061 168.283 412.988 167.35C411.961 166.417 411.238 165.11 410.818 163.43L412.988 165.11H410.888L408.508 168.75H394.928C393.201 168.75 391.801 168.283 390.728 167.35C389.701 166.417 388.978 165.11 388.558 163.43L390.728 165.11H388.628L386.248 168.75H372.318L373.438 161.75ZM372.318 168.75C371.805 168.75 371.501 168.447 371.408 167.84C371.268 167.28 371.291 166.417 371.478 165.25C371.711 164.083 371.968 163.22 372.248 162.66C372.528 162.053 372.925 161.75 373.438 161.75L372.318 168.75Z" fill="#181822"/>
    <defs>
    <linearGradient id="paint0_linear_138_349" x1="27" y1="4.99999" x2="201.5" y2="155.5" gradientUnits="userSpaceOnUse">
    <stop stop-color="#FE7230"/>
    <stop offset="1" stop-color="#A6298C"/>
    </linearGradient>
    <linearGradient id="paint1_linear_138_349" x1="54" y1="3.99999" x2="190.5" y2="162.5" gradientUnits="userSpaceOnUse">
    <stop stop-color="#FE7230"/>
    <stop offset="1" stop-color="#A6298C"/>
    </linearGradient>
    </defs>
    </svg>
    