<svg width="510" height="635" viewBox="0 0 510 635" fill="none" xmlns="http://www.w3.org/2000/svg">
<g filter="url(#filter0_d_26_105)">
<rect width="500" height="625" rx="10" fill="#00C6AE"/>
<g clip-path="url(#clip0_26_105)">
<path fill-rule="evenodd" clip-rule="evenodd" d="M82.8 616.383C83.5021 603.338 84.3647 590.304 85.3973 577.28C87.4549 551.339 90.149 525.378 94.6323 499.734C99.0553 474.433 105.245 449.831 114.164 425.721C118.301 414.536 122.781 404.994 129.281 394.938C135.428 385.431 143.27 378.989 153.042 373.251C161.845 368.08 172.073 359.109 180.516 353.318C184.041 350.901 191.294 351.062 193.711 347.486C196.877 342.804 194.824 335.637 198.015 330.97C201.663 325.634 206.773 321.488 212.535 318.477C218.824 314.218 226.232 312.289 233.659 312.555C244.612 311.891 255.642 315.378 262.674 324.294C266.183 328.743 268.232 333.877 268.515 339.561C268.589 341.04 268.114 342.206 267.333 343.047C267.796 343.667 268.257 344.287 268.715 344.911C270.154 342.781 273.516 341.648 275.756 343.256C283.085 348.518 291.006 352.702 299.367 355.769C301.323 354.843 303.691 355.272 305.366 356.783C306.046 357.396 306.768 357.92 307.522 358.365C310.622 359.205 313.77 359.908 316.964 360.45C317.964 360.62 318.811 361.188 319.454 361.953C320.406 361.063 321.714 360.636 323.176 361.193C340.049 367.626 355.982 377.619 368.094 391.158C381.512 406.157 388.559 424.815 393.925 443.93C399.733 464.623 403.444 485.83 406.562 507.074C409.721 528.598 412.832 550.207 415.006 571.856C416.229 584.039 416.695 596.333 416.142 608.569C415.866 614.685 415.307 620.781 414.418 626.838C414.21 628.255 413.993 629.887 413.644 631.516C414.706 631.31 415.971 632.208 415.756 633.645C414.257 643.656 402.155 646.572 393.809 647.724C380.158 649.609 366.435 650.655 352.652 650.735C339.107 650.814 325.565 649.945 312.049 649.166C298.192 648.368 284.335 647.566 270.478 646.753C214.959 643.498 159.437 640.278 103.918 637.021C98.8458 636.724 93.054 636.321 88.7094 633.379C82.7538 629.345 82.4475 622.934 82.8 616.383Z" fill="white"/>
<path fill-rule="evenodd" clip-rule="evenodd" d="M353.452 504.415C353.645 504.054 353.198 503.73 352.901 503.99C346.162 509.905 342.633 519.405 341.893 528.186C341.109 537.498 342.221 547.139 342.645 556.446C343.118 566.814 343.543 577.186 344.12 587.549C344.706 598.062 345.337 608.573 345.878 619.089L347.095 642.744C347.224 645.265 346.944 648.366 347.911 650.719C349.41 654.366 353.863 653.801 354.799 650.753L354.828 650.652L354.914 650.719C355.739 647.971 355.121 644.708 354.981 641.868L353.706 616.022C352.806 597.754 352.002 579.485 351.035 561.22L350.706 555.132C350.253 546.936 349.906 538.761 349.628 530.568L349.537 527.836C349.273 519.609 349.483 511.843 353.452 504.415ZM190.068 352.759C186.313 352.403 183.478 353.648 180.069 354.96C178.584 355.531 177.178 356.191 175.753 356.874C173.969 357.729 172.822 359.241 171.724 360.84L171.137 361.702C166.563 368.404 163.487 376.135 160.015 383.432C155.954 391.967 151.853 400.483 147.879 409.059L145.918 413.284C144.938 415.397 143.96 417.51 142.997 419.631L141.333 423.322C139.662 427.065 138.163 431.024 140.546 434.886C142.761 438.477 146.688 441.255 149.798 444.031C152.392 446.348 154.987 448.663 157.582 450.979C152.217 456.352 148.616 463.118 146.499 470.373C143.491 469.12 139.819 468.879 136.709 468.337C132.356 467.578 131.822 474.17 135.931 474.089C138.966 474.03 142.525 474.34 145.638 473.7C145.097 476.085 144.704 478.505 144.455 480.932C143.147 493.651 146.005 506.445 148.986 518.752L149.231 519.762C152.469 533.083 155.538 546.438 158.284 559.869C161.036 573.329 163.512 586.845 165.71 600.407C167.947 614.21 169.529 628.09 171.23 641.966C171.488 644.066 172.809 645.866 175.13 645.866C177.063 645.866 179.272 644.062 179.029 641.966C177.274 626.855 174.785 611.823 172.311 596.815C168.052 570.969 162.69 545.349 156.522 519.896L155.445 515.464C152.67 503.968 150.152 492.123 151.544 480.265C152.678 470.61 156.715 460.315 164.693 454.317L164.936 454.137C166.799 452.77 167.516 450.156 165.681 448.356C164.513 447.211 163.343 446.066 162.173 444.923L155.15 438.066L153.734 436.681C152.554 435.528 151.368 434.382 150.146 433.271C149.407 432.6 147.402 431.319 147.255 430.214C147.16 429.492 148.014 428.226 148.36 427.562L149.945 424.362C150.845 422.537 151.717 420.699 152.596 418.864C154.418 415.062 156.265 411.272 158.047 407.452L168.752 384.512C171.771 378.04 174.462 371.208 178.41 365.224L179.188 364.058C179.838 363.076 180.412 362.131 180.822 360.93C181.217 359.774 181.713 358.506 182.443 357.52C184.153 355.205 187.421 353.893 190.156 353.408C190.551 353.338 190.407 352.792 190.068 352.759ZM272.398 346.734C272.16 346.734 272.124 347.073 272.343 347.139C275.642 348.131 278.795 349.732 281.367 352.043C282.598 353.149 283.837 354.404 284.597 355.893C284.887 356.463 285.048 357.065 285.166 357.688L285.204 357.897C285.4 359.025 285.681 359.652 286.253 360.554L286.351 360.708C289.62 365.756 291.911 371.364 294.006 376.979L298.567 389.221L303.126 401.466C304.595 405.411 306.064 409.356 307.534 413.301C308.345 415.479 309.18 417.648 310.014 419.818C310.375 420.757 310.763 421.69 311.093 422.642C311.138 422.771 311.283 423.554 311.391 423.745L311.354 423.809C310.435 425.356 307.983 426.649 306.593 427.773L301.807 431.642C298.394 434.402 294.894 437.084 291.584 439.967C289.505 441.777 290.799 445.019 293.117 445.775C297.003 447.041 300.81 448.556 304.637 449.988C306.183 450.567 307.793 451.07 309.321 451.708L310.251 452.11C310.615 452.274 310.44 452.272 310.425 452.942C310.411 453.646 310.211 454.379 310.097 455.07C308.808 462.866 307.441 470.649 305.999 478.418C300.897 505.891 294.801 533.164 287.849 560.227C284.338 573.894 280.572 587.494 276.984 601.141C273.404 614.751 268.694 628.166 264.197 641.496C262.928 645.255 268.888 646.874 270.125 643.131C275.308 627.453 280.05 611.639 284.947 595.872C293.646 567.858 300.502 539.235 306.565 510.543C309.571 496.323 312.319 482.048 314.809 467.728C315.28 465.017 315.742 462.305 316.195 459.59L316.855 455.598C317.307 452.752 317.565 449.788 315.353 447.536C313.194 445.338 309.486 444.559 306.645 443.528L306.439 443.453C304.63 442.778 302.809 442.128 300.995 441.457C303.667 439.353 306.307 437.202 308.973 435.099C311.123 433.403 313.308 431.741 315.428 430.005C317.175 428.574 318.6 426.736 318.783 424.408C318.969 422.029 317.949 419.821 317.127 417.639L317.048 417.428C316.241 415.25 315.431 413.072 314.601 410.902L309.465 397.468C306.201 388.931 303.075 380.325 299.641 371.854C298.283 368.502 296.803 365.203 295.054 362.034C294.211 360.506 293.306 359.011 292.323 357.569C291.222 355.952 290.222 355.163 288.516 354.271C285.788 352.844 283.646 350.452 280.907 348.981C278.217 347.538 275.451 346.767 272.398 346.734ZM263.541 331.504C263.436 331.324 263.16 331.404 263.156 331.608C263.085 335.851 264.093 340.186 264.713 344.381C265.336 348.591 265.536 353.035 266.437 357.2C266.455 357.394 266.493 357.586 266.546 357.773L266.589 357.916C266.969 359.083 267.958 360.072 269.172 360.381C268.79 362.496 268.431 364.614 268.128 366.744C267.609 370.405 267.135 374.071 266.669 377.738L266.111 382.139C265.584 386.286 265.071 390.436 264.565 394.585C263.276 395.124 261.962 395.569 260.615 395.954C257.515 396.841 254.339 397.202 251.139 397.516C244.622 398.156 238.056 398.452 231.516 398.815L230.115 398.894C222.763 399.315 215.371 399.39 208.037 398.635C204.401 398.261 200.793 397.633 197.247 396.744C195.445 396.292 193.694 395.616 191.895 395.174C191.299 395.028 190.766 394.69 190.168 394.329C189.903 393.993 189.53 393.739 189.045 393.641L188.914 393.618L188.784 393.599L188.739 393.579L188.742 393.593C188.374 393.543 188.025 393.544 187.695 393.589C187.564 390.353 187.422 387.118 187.244 383.883C186.765 375.195 185.444 366.133 187.208 357.52C187.267 357.231 186.873 357.129 186.77 357.4C183.31 366.517 183.699 376.486 183.525 386.082C183.354 395.465 183.457 404.856 183.504 414.242C182.832 414.528 182.232 414.916 181.757 415.46C180.809 416.547 180.536 418.437 181.757 419.487C182.299 419.952 182.898 420.275 183.533 420.499C183.567 428.653 183.625 436.808 183.707 444.962C182.156 446.16 182.011 449.004 183.765 450.186C184.057 476.593 184.537 503.001 184.935 529.404L185.768 584.798C185.879 592.178 186.063 599.558 186.129 606.938L186.077 606.958L185.892 607.044C185.582 607.19 185.119 607.426 185.024 607.667C184.999 607.731 184.992 607.774 184.995 607.806C184.486 607.878 183.982 608.118 183.546 608.532C182.469 609.555 182.688 611.097 183.546 612.139L183.775 612.417C184.31 613.067 185.326 613.317 186.155 613.185C186.146 617.79 186.117 622.397 186.131 627.003C186.136 628.41 186.157 629.817 186.182 631.223L186.24 634.597C186.278 636.522 186.449 638.968 188.42 639.833C190.644 640.809 192.639 640.009 193.539 637.75C193.783 637.138 193.731 636.568 193.642 635.963C193.669 635.054 193.812 634.001 193.794 633.158L193.72 629.641C193.709 629.098 193.687 628.557 193.672 628.014L193.736 628.021C201.638 628.404 209.596 628.217 217.512 628.213L221.032 628.218C223.969 628.22 226.913 628.205 229.846 628.092L230.945 628.045C233.141 627.942 235.451 627.909 237.727 627.713C237.437 630.05 237.166 632.389 236.924 634.73C236.695 636.95 238.986 638.836 241.03 638.836C243.457 638.836 244.845 636.928 245.136 634.73C246.507 624.361 247.068 613.894 248.379 603.518C249.552 594.225 250.57 584.91 251.604 575.599L251.95 572.495C255.735 538.61 259.41 504.712 262.926 470.798L264.562 454.944C266.215 438.965 267.878 422.984 269.28 406.982C270.082 397.832 270.821 388.681 271.517 379.523C272.027 372.795 272.347 366.105 272.556 359.39C273.379 358.543 273.791 357.307 273.427 356.031C273.214 355.286 272.966 354.545 272.704 353.806C272.721 353.079 272.738 352.352 272.752 351.625C272.765 350.936 272.066 350.582 271.507 350.696C270.49 348.234 269.37 345.793 268.436 343.355C266.923 339.408 265.677 335.155 263.541 331.504ZM348.001 374.16C332.192 364.251 313.373 357.12 294.525 357.888C294.096 357.906 293.976 358.559 294.421 358.658C304.474 360.903 314.639 363.637 324.157 367.617C333.702 371.609 342.779 376.984 350.863 383.443C365.778 395.36 377.372 410.861 385.006 428.334C389.477 438.57 392.611 449.376 395.348 460.186C398.244 471.626 400.631 483.19 402.616 494.823C406.535 517.802 408.818 541.034 410.032 564.306C411.267 587.98 410.758 611.669 411.639 635.346C411.792 639.448 417.654 639.368 417.952 635.346C419.949 608.427 418.843 581.079 416.996 554.179C415.336 529.997 412.437 505.866 407.768 482.073L407.362 480.011C402.997 457.997 397.733 435.451 387.182 415.516C378.174 398.496 364.267 384.356 348.001 374.16ZM128.464 479.367C128.382 479.131 128.07 479.134 127.987 479.367C126.185 484.413 126.12 490.106 125.641 495.425L125.603 495.833C125.144 500.685 124.798 505.542 124.476 510.403L124.357 512.226C123.066 532.057 121.452 551.866 119.02 571.593C116.597 591.246 113.321 610.761 109.778 630.238C109.384 632.407 110.344 634.616 112.618 635.24C114.622 635.791 117.195 634.556 117.619 632.4C119.819 621.221 121.597 610.027 123.184 598.75C125.977 578.894 128.062 558.946 129.402 538.939C130.075 528.89 130.489 518.846 130.653 508.776C130.729 504.104 130.608 499.42 130.359 494.753L130.299 493.676C130.025 488.905 130.053 483.917 128.464 479.367ZM299.295 605.68C299.083 605.565 298.822 605.8 298.956 606.019C302.017 610.994 306.158 615.285 310.161 619.513C314.345 623.933 318.426 628.487 322.695 632.82C325.78 635.951 330.741 630.901 327.486 628.029C322.909 623.991 318.125 620.154 313.467 616.206L311.429 614.479C307.61 611.252 303.677 608.054 299.295 605.68ZM153.898 603.188C154.126 602.753 153.604 602.4 153.25 602.688C150.78 604.696 148.567 607.092 146.183 609.211C143.822 611.31 141.372 613.268 138.856 615.178C136.329 617.095 133.747 618.936 131.096 620.678C128.897 622.123 126.63 623.28 124.327 624.48C123.26 624.617 122.272 625.141 121.482 626.133C120.232 627.703 120.099 630.663 121.833 632.026L122.144 632.27C124.167 633.86 126.569 634.054 128.561 632.27C130.785 630.278 132.887 628.086 135.022 625.982L135.664 625.353C137.959 623.122 140.198 620.819 142.309 618.412L144.22 616.238C147.765 612.195 151.455 607.837 153.898 603.188ZM165.272 370.086C165.683 369.814 165.43 369.081 164.922 369.256L163.992 369.578C160.107 370.928 156.108 372.426 152.58 374.505C148.789 376.739 145.289 379.4 141.945 382.255C135.022 388.165 129.133 395.432 124.129 403.007C114.086 418.207 107.876 435.614 102.862 453.032C97.5155 471.603 93.3993 490.574 90.0384 509.599C86.6234 528.933 83.9887 548.441 82.2572 567.999C81.4042 577.633 80.8316 587.273 80.5437 596.941C80.3954 601.915 80.4002 606.885 80.4416 611.86C80.4522 613.139 80.4437 614.418 80.4292 615.697L80.3804 619.534C80.3545 621.96 80.064 624.509 80.6406 626.879C81.5684 630.694 87.8756 629.982 87.6683 626.083C87.8584 624.786 87.8659 623.445 87.8166 622.101C87.8465 621.928 87.8791 621.752 87.9152 621.572C88.0186 621.056 87.9306 620.579 87.7281 620.169C87.6956 619.525 87.6661 618.884 87.6555 618.255C87.6141 615.693 87.6168 613.142 87.6876 610.581C87.8368 605.181 88.0516 599.782 88.2686 594.385C88.7021 583.6 89.3051 572.81 90.1793 562.052C93.2206 524.603 99.6427 486.942 110.43 450.914C115.44 434.184 122.347 417.76 132.253 403.303C136.65 396.885 141.61 390.957 147.11 385.455C152.644 379.918 158.743 374.41 165.272 370.086ZM239.914 611.493L239.167 616.901C238.793 619.605 238.423 622.311 238.072 625.018C235.686 624.691 233.245 624.554 230.946 624.35C226.921 623.994 222.868 623.821 218.831 623.654C210.483 623.31 202.093 622.713 193.737 622.755C193.651 622.755 193.57 622.761 193.489 622.767L193.074 612.097L198.946 612.088C203.92 612.08 208.894 612.038 213.868 611.995C218.348 611.956 222.83 611.95 227.309 611.857L229.229 611.811C232.626 611.72 236.377 611.909 239.914 611.493ZM192.581 596.005C192.821 596.033 193.065 596.057 193.324 596.068C194.487 596.117 195.659 596.083 196.823 596.093C199.301 596.114 201.778 596.131 204.257 596.131C209.213 596.13 214.168 596.16 219.123 596.22C224.224 596.282 229.322 596.37 234.424 596.38C236.896 596.385 239.359 596.319 241.83 596.25C241.431 599.762 241.013 603.271 240.552 606.772C236.715 606.254 232.588 606.515 228.838 606.479L228.351 606.473C223.232 606.385 218.11 606.45 212.99 606.456C207.723 606.462 202.457 606.48 197.19 606.523L192.863 606.558L192.854 606.34C192.728 602.899 192.646 599.453 192.581 596.005ZM243.734 579.204C243.254 583.35 242.804 587.502 242.345 591.653C242.04 591.606 241.731 591.566 241.416 591.533C238.94 591.274 236.47 591.052 233.986 590.898C229.034 590.591 224.083 590.429 219.123 590.296C214.022 590.159 208.921 590.054 203.819 589.982C201.34 589.947 198.864 589.951 196.385 589.968C195.222 589.976 194.047 589.939 192.886 590.017C192.748 590.027 192.616 590.041 192.485 590.056L192.397 583.824C192.382 582.785 192.367 581.747 192.35 580.709C196.181 580.945 200.076 580.855 203.904 580.856L204.787 580.858C209.597 580.88 214.409 580.814 219.218 580.714C224.18 580.61 229.132 580.448 234.084 580.131C236.091 580.002 238.083 579.831 240.079 579.611L241.077 579.497C241.945 579.395 242.84 579.312 243.734 579.204ZM191.954 561.616C201.181 562.348 210.359 562.654 219.61 562.745L220.998 562.757C229.173 562.819 237.416 563.157 245.61 562.94C245.12 567.189 244.632 571.437 244.139 575.685C242.966 575.63 241.787 575.63 240.64 575.588C238.307 575.504 235.981 575.483 233.647 575.478C228.837 575.467 224.028 575.508 219.218 575.499C214.261 575.488 209.305 575.405 204.349 575.311C200.331 575.236 196.27 574.934 192.241 574.945L191.954 561.616ZM191.564 543.491C192.633 543.847 193.896 543.869 195.28 543.933L198.851 544.111C200.507 544.192 202.162 544.268 203.819 544.329C209.339 544.531 214.859 544.72 220.379 544.895C226.036 545.075 231.721 545.179 237.379 545.001C240.15 544.913 242.899 544.768 245.662 544.537C246.345 544.48 247.041 544.442 247.739 544.393C247.096 550.022 246.45 555.65 245.802 561.278C237.647 560.277 229.429 559.653 221.283 558.618L213.918 557.678C206.557 556.738 199.201 555.816 191.813 555.039L191.564 543.491ZM191.171 525.167C192.74 525.554 194.528 525.535 196.034 525.63L196.313 525.649C199.168 525.866 202.03 525.974 204.89 526.044C210.498 526.183 216.109 526.252 221.718 526.286L225.091 526.307C229.587 526.333 234.081 526.345 238.579 526.24C241.464 526.173 244.343 526.032 247.226 525.887C248.089 525.844 248.972 525.815 249.858 525.771C249.255 531.1 248.647 536.427 248.039 541.756C247.092 541.605 246.14 541.491 245.233 541.337C242.91 540.945 240.591 540.631 238.25 540.351C233.182 539.743 228.087 539.306 222.994 538.937C217.766 538.558 212.534 538.238 207.305 537.871L203.602 537.61C202.367 537.525 201.133 537.442 199.898 537.366C197.789 537.237 195.337 537.383 193.245 536.924C192.679 536.688 192.05 536.633 191.42 536.768L191.171 525.167ZM190.697 503.716C191.239 504.406 192.05 504.767 193.017 504.892C198.051 505.545 203.216 505.65 208.293 505.958L209.188 506.015C214.431 506.36 219.676 506.631 224.923 506.91C230.312 507.196 235.701 507.429 241.095 507.617C243.385 507.697 245.686 507.706 247.98 507.677L248.962 507.662C249.904 507.646 250.89 507.649 251.879 507.617C251.332 512.6 250.779 517.582 250.219 522.564C249.211 522.454 248.203 522.37 247.226 522.267C244.345 521.962 241.467 521.661 238.579 521.434C233.108 521.002 227.632 520.743 222.15 520.472C216.541 520.194 210.929 520.009 205.32 519.747C202.6 519.62 199.881 519.462 197.17 519.212C195.269 519.037 193.012 518.39 191.029 518.628C190.921 513.657 190.808 508.687 190.697 503.716ZM190.254 484.502C190.34 484.635 190.44 484.763 190.562 484.883C192.778 487.073 195.51 486.904 198.448 487.134L198.628 487.149C201.507 487.391 204.387 487.621 207.269 487.829C213.03 488.245 218.803 488.536 224.572 488.795C230.476 489.06 236.419 489.243 242.329 489.123C246.114 489.045 250.078 489.059 253.938 488.69C253.345 494.178 252.749 499.665 252.148 505.152C251.063 504.948 249.97 504.791 248.935 504.628C246.328 504.218 243.717 503.805 241.094 503.503C235.853 502.9 230.611 502.336 225.359 501.826C220.868 501.391 216.379 500.949 211.885 500.551L209.188 500.318C203.825 499.867 198.395 499.123 193.016 499.013C192.13 498.995 191.127 499.477 190.619 500.239C190.5 494.993 190.377 489.747 190.254 484.502ZM189.882 468.946C191.251 469.113 192.726 469.018 193.99 469.059C197.185 469.164 200.38 469.261 203.576 469.355L222.748 469.921C229.276 470.113 235.827 470.258 242.357 470.165C245.23 470.125 248.115 470.12 250.986 469.964L251.943 469.906C253.125 469.827 254.575 469.816 255.992 469.672L254.319 485.162C250.478 484.607 246.519 484.399 242.71 484.073L241.896 484.002C236.278 483.49 230.633 483.151 225.005 482.77C219.232 482.379 213.467 481.905 207.701 481.419C204.82 481.177 201.939 480.935 199.059 480.67L198.704 480.635C195.984 480.351 193.426 479.747 191.017 481.351C190.665 481.585 190.389 481.898 190.2 482.249C190.095 477.815 189.992 473.38 189.882 468.946ZM189.435 450.87C201.111 451.34 212.79 451.696 224.475 451.853C231.052 451.941 237.621 451.879 244.198 451.742C247.049 451.682 249.925 451.545 252.774 451.327L253.841 451.241C255.196 451.127 256.62 451.044 258.037 450.908C257.451 456.233 256.87 461.56 256.293 466.887C254.899 466.628 253.442 466.509 252.221 466.352L251.943 466.315C248.908 465.898 245.843 465.654 242.793 465.386C236.853 464.862 230.883 464.525 224.927 464.239C218.828 463.945 212.726 463.696 206.626 463.425L200.526 463.152C199.509 463.107 198.493 463.063 197.476 463.02C196.023 462.958 194.571 462.9 193.118 462.84C192.402 462.81 191.657 462.713 190.939 462.75L190.735 462.722C190.641 462.71 190.558 462.701 190.482 462.693C190.287 462.544 190.076 462.421 189.854 462.327L189.719 462.275L189.435 450.87ZM259.951 433.739C259.409 438.533 258.873 443.328 258.344 448.124C256.678 447.934 254.993 447.829 253.403 447.686C250.197 447.399 246.975 447.147 243.759 446.999L237.331 446.7C233.047 446.502 228.762 446.31 224.474 446.154C212.739 445.726 201.005 445.235 189.277 444.636C189.194 441.383 189.109 438.13 189.022 434.878C189.585 435.481 190.398 435.877 191.467 435.875C203.779 435.842 216.101 435.913 228.412 435.711C234.575 435.609 240.73 435.46 246.885 435.144C249.897 434.989 252.926 434.674 255.915 434.26C257.189 434.083 258.584 433.957 259.951 433.739ZM261.922 416.655C261.343 421.566 260.775 426.478 260.217 431.392C258.688 431.119 257.108 430.974 255.682 430.78C252.617 430.363 249.533 430.031 246.445 429.856C240.438 429.517 234.428 429.345 228.413 429.218C216.102 428.956 203.78 428.958 191.467 428.861C190.31 428.851 189.452 429.309 188.888 429.992C188.802 426.926 188.712 423.859 188.619 420.791C189.808 420.666 190.988 420.488 192.079 420.412C195.432 420.178 198.787 419.964 202.143 419.771C209.146 419.369 216.156 419.027 223.165 418.722C230.175 418.416 237.187 418.118 244.199 417.859L247.266 417.747C252.143 417.565 257.102 417.336 261.922 416.655ZM264.128 398.159C263.525 403.133 262.932 408.108 262.34 413.083L262.16 414.623C256.295 413.483 250.114 413.149 244.2 412.897C237.186 412.599 230.185 412.445 223.165 412.467C216.152 412.488 209.15 412.654 202.143 412.944C198.642 413.088 195.141 413.255 191.642 413.445C190.68 413.497 189.552 413.47 188.39 413.486C188.365 412.705 188.344 411.923 188.317 411.141C188.21 407.975 188.106 404.808 187.997 401.641C190.364 402.857 193.441 403.347 195.82 403.866L196.091 403.926C200.019 404.808 204.029 405.38 208.037 405.729C215.91 406.416 223.864 406.159 231.729 405.494L233.107 405.376C240.013 404.777 247.173 404.018 253.868 402.309C257.058 401.495 260.355 400.356 263.212 398.704C263.51 398.533 263.816 398.351 264.128 398.159ZM197.628 339.05C197.56 338.781 197.157 338.72 197.025 338.971C196.095 340.738 195.749 342.859 195.103 344.752C194.408 346.788 193.76 348.838 192.993 350.849C191.392 355.051 189.502 359.088 187.25 362.979C185.019 366.833 191.265 369.584 192.907 365.365C194.602 361.011 195.995 356.51 196.838 351.909C197.249 349.665 197.616 347.389 197.735 345.109C197.837 343.15 198.113 340.961 197.628 339.05Z" fill="black"/>
<path fill-rule="evenodd" clip-rule="evenodd" d="M152.033 253.573C152.208 243.712 152.402 233.653 153.868 223.888C155.301 214.341 159.243 205.711 166.018 198.778C180.407 184.052 201.265 180.455 220.681 177.159L253.876 171.523C264.003 169.804 274.807 167.056 285.039 169.494C290.081 170.696 294.362 173.486 298.276 176.788C302.048 179.971 306.103 183.389 308.659 187.671C311.219 191.959 312.1 196.971 312.932 201.821C313.871 207.289 314.6 212.799 315.118 218.323C316.157 229.389 316.298 240.539 315.545 251.629C315.18 257.008 314.6 262.371 313.859 267.711C313.491 270.359 313.076 273 312.606 275.632C312.468 276.408 312.363 277.267 312.221 278.135C313.268 281.114 313.864 284.198 313.816 287.269C313.674 296.316 306.039 302.012 298.342 305.07C293.879 306.843 289.213 308.048 284.828 310.029C280.215 312.113 277.075 315.49 273.921 319.343C267.905 326.692 261.117 333.297 253.366 338.807C236.932 350.491 216.117 356.017 196.177 351.822C191.393 350.816 186.566 349.253 182.265 346.899C177.725 344.413 174.311 340.811 171.444 336.552C166.12 328.645 162.302 319.742 159.414 310.682C156.468 301.441 154.377 292.182 153.237 282.546C152.1 272.941 151.861 263.238 152.033 253.573Z" fill="white"/>
<path fill-rule="evenodd" clip-rule="evenodd" d="M257.962 137.171C244.225 135.282 225.265 141.424 218.424 153.808C185.763 146.108 144.569 145.855 117.65 171.491C89.5602 201.901 124.842 241.997 148.237 251.037C146.533 259.316 149.189 312.354 167.981 336.011C182.895 356.056 217.625 365.307 233.695 341.365L233.821 341.168C235.543 338.403 234.06 338.491 232.292 340.548C216.556 354.389 195.159 354.625 178.671 340.019C147.77 313.32 150.956 247.858 165.66 209.987C207.531 205.388 252.361 218.08 281.28 249.602L279.324 261.377C278.991 263.383 278.613 265.387 278.324 267.4C278.139 268.69 278.118 269.973 279.012 271.017C281.962 274.464 286.934 269.284 291.025 267.224C292.233 267.054 293.443 266.989 294.63 267.072C314.286 269.604 310.413 307.739 288.81 301.055C286.995 299.924 285.435 300.269 284.731 301.91C279.582 306.627 276.187 315.04 267.632 323.143C264.613 326.183 261.866 328.726 258.471 331.164C256.477 333.181 250.459 335.238 252.367 338.69C255.974 346.544 277.246 321.873 281.007 315.05C292.791 319.704 305.85 318.123 318.062 316.985C382.485 313.635 373.885 245.717 321.079 202.836C311.139 195.518 300.172 189.547 288.772 184.953C287.215 184.325 287.895 181.77 289.474 182.406C297.017 185.446 304.37 189.065 311.38 193.254L311.39 190.749C311.401 186.532 311.334 182.141 310.602 178.287C310.236 175.617 309.62 172.765 308.672 170.619C307.5 164.041 289.139 141.462 257.962 137.171ZM295.49 275.828C294.495 274.883 292.638 276.009 291.753 275.981C289.488 276.291 287.337 277.248 285.659 278.428C284.551 279.049 283.775 279.632 283.126 280.168L283.108 280.163C283.113 280.163 283.119 280.168 283.125 280.169L283.064 280.211C282.119 280.882 278.661 284.663 280.846 283.646C281.009 283.434 281.175 283.231 281.343 283.032C281.362 283.059 281.387 283.086 281.417 283.112L281.294 283.294C279.437 286.088 282.643 283.144 283.136 282.362C283.16 282.381 283.186 282.394 283.212 282.408L282.57 283.19C282.48 283.301 282.409 283.389 282.351 283.464L282.215 283.595C280.068 285.706 280.001 287.605 282.495 284.485C282.397 284.632 282.318 284.788 282.307 284.926L282.16 285.114C280.201 287.638 281.794 286.742 282.767 285.664L282.849 285.571L282.832 285.596C281.927 286.991 283.723 286.012 284.04 285.266L284.054 285.233C284.4 284.95 284.613 284.634 284.686 284.554L284.699 284.54C286.383 282.815 288.824 281.354 290.898 280.691C291.198 280.634 291.502 280.588 291.81 280.555C293.057 280.277 294.317 280.087 295.591 279.984C295.747 279.965 295.905 279.851 296.023 279.703C297.949 279.638 297.354 278.848 296.555 278.702L296.541 278.699L296.7 278.686C297.936 278.565 298.78 278.122 297.53 277.849L297.372 277.818C297.391 277.787 297.408 277.757 297.425 277.727C298.495 277.609 297.797 276.569 297.203 276.82C297.453 276.003 296.31 276.411 296.167 276.289C296.059 276.169 295.924 276.062 295.846 276.057C295.502 275.814 295.668 275.836 295.49 275.828ZM288.939 262.592L289.19 262.739C289.393 262.857 289.602 262.936 289.811 262.982C289.515 263.108 289.223 263.244 288.934 263.39C288.939 263.212 288.942 263.035 288.942 262.858L288.939 262.592Z" fill="black"/>
<path fill-rule="evenodd" clip-rule="evenodd" d="M191.004 316.508C194.247 317.448 197.727 317.532 201.032 316.562C204.03 315.682 207.108 313.745 209.314 311.183C211.274 308.907 212.543 306.141 212.493 303.189C212.488 302.852 212.367 302.57 212.182 302.352C211.982 302.116 211.703 301.955 211.404 301.885C211.097 301.813 210.772 301.838 210.496 301.964C210.246 302.078 210.031 302.271 209.897 302.553C209.558 302.999 209.22 303.438 208.881 303.864C206.155 307.231 203.515 309.747 199.415 310.65C197.191 311.139 194.97 310.922 192.931 310.175C190.75 309.375 188.777 307.969 187.232 306.169C186.533 305.356 185.709 305.024 184.902 305.018C183.989 305.012 183.085 305.437 182.405 306.115C181.736 306.783 181.288 307.689 181.248 308.637C181.212 309.47 181.484 310.339 182.206 311.115C184.585 313.67 187.668 315.542 191.004 316.508ZM191.104 274.341C187.78 276.361 182.716 281.073 186.291 286.082C190.5 290.499 196.559 285.434 199.545 283.144C202.314 281.369 205.425 285.934 202.856 288.007C181.279 303.984 172.522 274.869 189.422 271.965C191.283 271.645 191.974 273.716 191.104 274.341ZM222.194 265.449C223.263 264.766 224.519 264.532 225.912 265.165C227 265.66 228.909 267.31 230.238 269.48C231.146 270.964 231.791 272.705 231.657 274.518C231.625 274.939 231.781 275.25 232.026 275.479C232.22 275.661 232.5 275.794 232.829 275.836C233.108 275.871 233.421 275.839 233.675 275.76C234.158 275.609 234.414 275.295 234.51 275.039C235.441 272.569 235.04 269.812 233.997 267.325C232.591 263.968 230.036 261.156 228.362 260.25C225.498 258.698 222.119 258.627 219.25 260.208C216.809 261.553 215.282 263.725 213.763 265.939C213.441 266.41 213.12 266.877 212.789 267.336C212.126 268.256 212.06 269.168 212.317 269.951C212.601 270.817 213.327 271.549 214.235 271.931C215.074 272.285 216.048 272.335 216.909 271.971C217.637 271.664 218.305 271.066 218.728 270.05C219.44 268.34 220.626 266.453 222.194 265.449ZM167.942 269.255C168.673 269.636 169.246 269.751 170.057 269.508C170.506 269.373 170.949 269.115 171.297 268.768C171.641 268.423 171.889 267.995 171.986 267.52C172.223 266.348 172.864 265.251 173.778 264.536C174.559 263.925 175.545 263.601 176.638 263.784C177.818 263.981 178.942 264.738 179.716 265.63C179.975 265.928 180.177 266.267 180.381 266.604C180.763 267.234 181.133 267.819 181.659 268.282C181.859 268.458 182.159 268.58 182.45 268.58C182.569 268.58 182.689 268.56 182.803 268.525C183.977 267.346 184.203 266.452 184.165 265.565C184.126 264.635 183.759 263.693 183.166 262.815C181.777 260.754 179.138 259.064 177.357 258.681C174.919 258.157 172.497 258.786 170.555 260.148C168.557 261.55 167.077 263.726 166.615 266.178C166.504 266.769 166.551 267.407 166.776 267.959C166.996 268.499 167.379 268.962 167.942 269.255ZM216.817 243.476C218.28 244.902 220.012 245.123 221.765 245.319C222.738 245.429 223.516 245.518 224.281 245.691C226.383 246.165 228.461 246.88 230.357 247.91C232.338 248.986 234.498 250.284 236.052 251.946C236.421 252.342 236.77 252.757 237.118 253.173C237.436 253.553 237.743 253.918 238.066 254.27C238.436 254.675 238.789 255.099 239.139 255.522C239.355 255.878 239.398 255.966 239.442 256.057C239.507 256.195 239.584 256.348 239.671 256.513C239.79 256.739 239.93 256.986 240.077 257.21C240.32 257.619 240.451 257.732 240.564 257.783C240.752 257.866 240.93 257.907 241.102 257.885C241.264 257.864 241.416 257.786 241.567 257.659C242.318 257.024 242.54 255.982 242.517 254.876C242.483 253.198 241.864 251.34 241.293 250.197C239.966 247.543 238.126 244.784 235.914 242.803C233.389 240.542 230.627 238.83 227.454 237.65C225.483 236.917 223.2 236.243 221.052 236.329C219.506 236.39 218.03 236.849 216.811 237.997C216.063 238.702 215.704 239.704 215.704 240.706C215.704 241.727 216.077 242.755 216.817 243.476ZM164.965 256.534C165.058 256.687 165.187 256.792 165.33 256.855C165.48 256.921 165.648 256.94 165.809 256.913C165.969 256.886 166.121 256.814 166.242 256.703C166.358 256.596 166.446 256.455 166.486 256.282C167.457 252.014 169.344 248.839 173.371 246.791C175.352 245.784 177.629 245.144 179.786 244.633C180.412 244.485 181.074 244.389 181.741 244.292C183.831 243.986 185.936 243.637 187.298 241.948C188.119 240.93 188.463 239.628 188.269 238.438C188.085 237.318 187.43 236.29 186.24 235.674C183.277 234.142 179.595 235.646 176.602 236.926C176.38 237.021 176.162 237.115 175.949 237.205C173.023 238.44 170.354 240.071 168.16 242.403C166.419 244.253 164.806 246.988 164.157 249.802C163.616 252.142 163.743 254.532 164.965 256.534Z" fill="black"/>
<path fill-rule="evenodd" clip-rule="evenodd" d="M190.62 291.491C195.515 289.286 204.304 291.21 207.495 291.976C214.914 293.755 222.377 297.6 224.683 303.624C227.282 310.413 222.097 312.551 221.334 312.201C216.198 312.563 210.083 309.334 204.701 308.501C200.332 307.819 195.723 307.223 191.63 304.902C188.642 306.546 181.892 307.435 176.444 308.872C171.804 310.096 169.794 312.75 165.493 312.186C160.338 311.509 162.448 300.666 168.193 296.273C174.481 291.466 185.116 289.516 190.62 291.491ZM180.928 337.856C185.21 338.9 185.498 329.512 185.978 326.196C186.352 323.605 188.466 316.923 193.825 317.211C199.184 317.5 201.199 323.098 200.927 326.58C200.751 328.838 198.67 340.275 205.311 341.722C209.545 341.707 214.442 341.421 218.894 340.6C224.133 339.413 230.947 335.258 232.746 343.441C233.394 346.386 210.314 355.136 200.072 355.928C189.686 358.033 177.533 354.796 170.138 346.849C168.456 345.041 163.718 337.537 163.38 335.699C162.671 331.836 164.313 329.35 169.092 330.712C172.468 332.515 178.174 337.184 180.928 337.856Z" fill="black"/>
<path fill-rule="evenodd" clip-rule="evenodd" d="M160.218 281.835C166.823 285.017 176.039 280.324 180.481 275.408C182.097 273.619 183.345 268.498 182.723 265.25C181.038 256.454 174.709 251.175 168.027 249.373C158.765 246.873 149.444 253.205 150.53 260.677C151.561 267.759 153.122 278.031 160.218 281.835ZM205.178 264.94C205.708 274.525 213.404 282.915 222.603 285.401C237.425 289.537 244.749 279.117 248.067 267.892C248.397 266.776 249.172 263.372 247.092 260.451C238.913 248.964 219.013 250.922 209.074 254.076C206.165 256.858 204.975 260.874 205.178 264.94ZM153.151 248.314C153.154 248.317 153.157 248.32 153.16 248.324C153.18 248.311 153.2 248.299 153.221 248.286C153.198 248.296 153.174 248.304 153.151 248.314ZM140.64 249.515C141.501 239.756 172.118 243.493 175.698 244.293C185.467 247.166 193.905 254.984 204.828 251.548C216.145 238.93 254.256 242.549 262.246 248.976C263.758 248.383 265.597 248.701 267.545 249.261C277.551 248.899 323.231 252.349 313.888 265.122C312.469 266.105 311.053 265.104 311.013 263.078C262.306 245.493 267.028 261.964 261.251 260.04C260.369 260.294 259.449 260.455 258.644 260.624C254.173 262.063 252.655 261.618 252.066 266.638C248.02 305.398 196.411 292.02 200.644 260.227C196.453 259.996 192.787 258.184 188.356 259.954C185.279 289.904 161.18 291.112 153.928 280.73C148.46 273.524 150.628 262.649 143.111 256.981C140.144 259.464 139.953 251.082 140.64 249.515Z" fill="black"/>
</g>
</g>
<defs>
<filter id="filter0_d_26_105" x="0" y="0" width="510" height="635" filterUnits="userSpaceOnUse" color-interpolation-filters="sRGB">
<feFlood flood-opacity="0" result="BackgroundImageFix"/>
<feColorMatrix in="SourceAlpha" type="matrix" values="0 0 0 0 0 0 0 0 0 0 0 0 0 0 0 0 0 0 127 0" result="hardAlpha"/>
<feOffset dx="6" dy="6"/>
<feGaussianBlur stdDeviation="2"/>
<feColorMatrix type="matrix" values="0 0 0 0 0 0 0 0 0 0 0 0 0 0 0 0 0 0 1 0"/>
<feBlend mode="normal" in2="BackgroundImageFix" result="effect1_dropShadow_26_105"/>
<feBlend mode="normal" in="SourceGraphic" in2="effect1_dropShadow_26_105" result="shape"/>
</filter>
<clipPath id="clip0_26_105">
<rect width="500" height="541.531" fill="white" transform="matrix(-1 0 0 1 500 83)"/>
</clipPath>
</defs>
</svg>
