<svg id="Group_7" data-name="Group 7" xmlns="http://www.w3.org/2000/svg" width="84.055" height="119.24" viewBox="0 0 84.055 119.24">
  <g id="Group_3" data-name="Group 3" transform="translate(0.1 0)">
    <path id="Path_1" data-name="Path 1" d="M620.083,372.485l-2.853,7.16q7.59-5.477,15.182-10.953a7.656,7.656,0,0,1,4.95-1.64,4.438,4.438,0,0,1,4.308,4.282,10.825,10.825,0,0,1-1.3,5.36c-.9,1.821-1.711,3.621-2.632,5.432l-.639,1.277c-.06.067-.163.151-.23.131a25.535,25.535,0,0,0-8.051-1.018,26.916,26.916,0,0,0-14.529,3.79,2.208,2.208,0,0,1-.558.362,1.956,1.956,0,0,1-2.919-.721,2.808,2.808,0,0,1,.179-2.115l.012-.009c.007-.02.013-.041.021-.061l5.119-12.848" transform="translate(-582.132 -350.922)" fill="#fca800"/>
    <path id="Path_2" data-name="Path 2" d="M818.183,260.042a8.172,8.172,0,1,0-8.167-8.183A8.11,8.11,0,0,0,818.183,260.042Z" transform="translate(-755.438 -243.698)" fill="#fca800"/>
    <path id="Path_3" data-name="Path 3" d="M696.859,646.851a7.921,7.921,0,1,0-7.924-7.971A7.848,7.848,0,0,0,696.859,646.851Zm.036-13.983a6.054,6.054,0,1,1-6.092,6.055A6.1,6.1,0,0,1,696.9,632.868Z" transform="translate(-650.183 -580.388)" fill="#7d1470"/>
    <path id="Path_4" data-name="Path 4" d="M724.858,670.517a3.692,3.692,0,0,0,3.662-3.744,3.724,3.724,0,1,0-3.662,3.744Z" transform="translate(-678.12 -608.265)" fill="#7d1470"/>
    <path id="Path_5" data-name="Path 5" d="M567.831,398.33c-5.273,0-7.929.87-12.45,3l4.551-12.268a1.75,1.75,0,0,0-.811-2.316l-2.532-.977a1.754,1.754,0,0,0-2.129,1.226l-7.98,21.441a2.327,2.327,0,0,0-.08.272,1.846,1.846,0,0,0,.43,1.752c.5.568,3.983,3.773,5.695,5.375a6.336,6.336,0,0,0,1.021.779,1.511,1.511,0,0,0,1.776-.039,7.9,7.9,0,0,0,1.389-1.263,1.52,1.52,0,0,0-.125-2.17c-.174-.189-.371-.358-.558-.535l-1.65-1.579a1.351,1.351,0,0,1,.155-.306,7.613,7.613,0,0,1,.573-.517,19.612,19.612,0,0,1,16.5-4.2,20.031,20.031,0,1,1-23.494,16.127c.37-2.118.419-4.558-1.959-5.7a3.631,3.631,0,0,0-4.5,1.381,22.4,22.4,0,0,0-1.147,7.848,27.329,27.329,0,1,0,27.329-27.329Z" transform="translate(-521.15 -367.127)" fill="#7d1470"/>
    <path id="Path_6" data-name="Path 6" d="M572.842,498.883a20.035,20.035,0,1,1-24.732,15.857c.37-2.118.419-4.558-1.959-5.7a3.631,3.631,0,0,0-4.5,1.381,22.4,22.4,0,0,0-1.147,7.848,27.329,27.329,0,1,0,35.61-26.052Z" transform="translate(-521.15 -459.736)" fill="#da005f"/>
    <path id="Path_7" data-name="Path 7" d="M616.129,394.7l2.093-5.641a1.75,1.75,0,0,0-.811-2.316l-2.532-.977a1.754,1.754,0,0,0-2.129,1.226l-5.194,13.956Z" transform="translate(-579.44 -367.127)" fill="#da005f"/>
    <g id="Group_2" data-name="Group 2" transform="translate(7.382 36.182)">
      <g id="Group_1" data-name="Group 1">
        <path id="Path_8" data-name="Path 8" d="M452.577,542.89a29.586,29.586,0,0,0,8.771,21.208l.011.012a.731.731,0,0,1-1.107.936l-.005-.006q-.628-.454-1.229-.943a27.318,27.318,0,0,1,0-42.416q.6-.488,1.229-.943l.005-.006a.731.731,0,0,1,1.107.936l-.011.012A29.586,29.586,0,0,0,452.577,542.89Z" transform="translate(-448.918 -520.541)" fill="#4d1e73"/>
      </g>
    </g>
    <path id="Path_9" data-name="Path 9" d="M392.435,599.333a19.945,19.945,0,0,0,4.8,13.006q.307.36.632.7l.054.061a.347.347,0,0,0,.521-.452l-.006-.011q-.107-.15-.211-.3a23.346,23.346,0,0,1,0-26.012q.1-.152.211-.3l.006-.012a.347.347,0,0,0-.521-.452l-.054.061q-.324.345-.632.7A19.945,19.945,0,0,0,392.435,599.333Z" transform="translate(-392.435 -540.802)" fill="#4d1e73"/>
  </g>
  <g id="Group_6" data-name="Group 6" transform="translate(0 96.414)">
    <g id="Group_4" data-name="Group 4" transform="translate(19.355 16.797)">
      <path id="Path_10" data-name="Path 10" d="M541.448,1109.914q.15,0,.323,0t.343.02a2.642,2.642,0,0,1,.317.049.8.8,0,0,1,.251.1,1.218,1.218,0,0,1,.389.379,1.054,1.054,0,0,1,.16.594,1.139,1.139,0,0,1-.18.643,1.057,1.057,0,0,1-.513.4v.013a1.072,1.072,0,0,1,.66.392,1.173,1.173,0,0,1,.229.731,1.39,1.39,0,0,1-.091.5,1.248,1.248,0,0,1-.271.428,1.357,1.357,0,0,1-.444.3,1.529,1.529,0,0,1-.611.114h-2.253v-4.663Zm.17,2.005a1.224,1.224,0,0,0,.761-.186.674.674,0,0,0,.232-.558.824.824,0,0,0-.078-.392.558.558,0,0,0-.216-.222.851.851,0,0,0-.317-.1,3.024,3.024,0,0,0-.382-.023h-1.241v1.483Zm.313,2.136a.893.893,0,0,0,.643-.222.81.81,0,0,0,.232-.614.765.765,0,0,0-.085-.379.66.66,0,0,0-.225-.238.951.951,0,0,0-.323-.124,1.962,1.962,0,0,0-.379-.036h-1.417v1.613Z" transform="translate(-539.756 -1109.914)" fill="#122472"/>
      <path id="Path_11" data-name="Path 11" d="M573.661,1119.232v.712h.013a1.5,1.5,0,0,1,.5-.608,1.247,1.247,0,0,1,.745-.183v.588a1.574,1.574,0,0,0-.568.091.9.9,0,0,0-.379.268,1.105,1.105,0,0,0-.209.428,2.311,2.311,0,0,0-.065.578v1.5h-.555v-3.376Z" transform="translate(-568.776 -1117.945)" fill="#122472"/>
      <path id="Path_12" data-name="Path 12" d="M590.2,1122.4a1.531,1.531,0,0,1-.953.287,1.737,1.737,0,0,1-.7-.131,1.381,1.381,0,0,1-.5-.366,1.548,1.548,0,0,1-.3-.562,2.7,2.7,0,0,1-.114-.712,2.031,2.031,0,0,1,.118-.705,1.681,1.681,0,0,1,.33-.555,1.492,1.492,0,0,1,.5-.366,1.533,1.533,0,0,1,.637-.131,1.385,1.385,0,0,1,.748.186,1.48,1.48,0,0,1,.477.473,1.874,1.874,0,0,1,.248.627,2.686,2.686,0,0,1,.056.646h-2.528a1.336,1.336,0,0,0,.052.421.95.95,0,0,0,.189.353.932.932,0,0,0,.333.245,1.148,1.148,0,0,0,.477.091.961.961,0,0,0,.578-.163.79.79,0,0,0,.3-.5h.549A1.35,1.35,0,0,1,590.2,1122.4Zm-.134-2.168a.949.949,0,0,0-.2-.3.965.965,0,0,0-.3-.2.952.952,0,0,0-.382-.075.969.969,0,0,0-.389.075.9.9,0,0,0-.3.206.985.985,0,0,0-.2.3,1.153,1.153,0,0,0-.085.369h1.94A1.141,1.141,0,0,0,590.07,1120.23Z" transform="translate(-581.374 -1117.951)" fill="#122472"/>
      <path id="Path_13" data-name="Path 13" d="M617.64,1122.6a.787.787,0,0,1-.4.085.477.477,0,0,1-.343-.121.525.525,0,0,1-.127-.4,1.328,1.328,0,0,1-.532.4,1.838,1.838,0,0,1-1.091.069,1.011,1.011,0,0,1-.356-.163.783.783,0,0,1-.238-.291.98.98,0,0,1-.088-.435.992.992,0,0,1,.1-.47.856.856,0,0,1,.258-.3,1.177,1.177,0,0,1,.366-.173q.206-.059.421-.1t.434-.069a2.409,2.409,0,0,0,.363-.065.605.605,0,0,0,.248-.124.3.3,0,0,0,.091-.238.553.553,0,0,0-.069-.294.469.469,0,0,0-.176-.17.718.718,0,0,0-.242-.078,1.841,1.841,0,0,0-.264-.02,1.175,1.175,0,0,0-.588.134.569.569,0,0,0-.255.506H614.6a1.2,1.2,0,0,1,.131-.529.989.989,0,0,1,.314-.349,1.315,1.315,0,0,1,.448-.193,2.361,2.361,0,0,1,.539-.059,3.149,3.149,0,0,1,.454.033,1.188,1.188,0,0,1,.408.133.783.783,0,0,1,.294.284.905.905,0,0,1,.111.476v1.734a1.286,1.286,0,0,0,.023.287q.023.091.154.091a.665.665,0,0,0,.17-.026Zm-.9-1.731a.694.694,0,0,1-.274.114c-.113.024-.232.043-.356.058s-.249.032-.375.052a1.4,1.4,0,0,0-.34.094.615.615,0,0,0-.245.185.517.517,0,0,0-.095.328.447.447,0,0,0,.056.231.456.456,0,0,0,.144.153.6.6,0,0,0,.206.085,1.145,1.145,0,0,0,.248.026,1.322,1.322,0,0,0,.47-.075.984.984,0,0,0,.32-.188.742.742,0,0,0,.183-.247.622.622,0,0,0,.059-.25Z" transform="translate(-604.702 -1117.951)" fill="#122472"/>
      <path id="Path_14" data-name="Path 14" d="M643.506,1109.914v2.763l1.541-1.476h.745l-1.339,1.228,1.437,2.149h-.705l-1.156-1.763-.522.483v1.28h-.555v-4.663Z" transform="translate(-629.464 -1109.914)" fill="#122472"/>
      <path id="Path_15" data-name="Path 15" d="M668.887,1110.593v-.679h.555v.679Zm.555.607v3.377h-.555V1111.2Z" transform="translate(-652.01 -1109.914)" fill="#122472"/>
      <path id="Path_16" data-name="Path 16" d="M680.253,1119.237v.536h.013a1.169,1.169,0,0,1,1.1-.614,1.467,1.467,0,0,1,.555.091.914.914,0,0,1,.359.255.945.945,0,0,1,.193.389,2.088,2.088,0,0,1,.056.5v2.22h-.555v-2.286a.671.671,0,0,0-.183-.5.68.68,0,0,0-.5-.183,1.133,1.133,0,0,0-.441.078.826.826,0,0,0-.31.222.959.959,0,0,0-.186.336,1.361,1.361,0,0,0-.062.421v1.907h-.555v-3.377Z" transform="translate(-661.436 -1117.951)" fill="#122472"/>
      <path id="Path_17" data-name="Path 17" d="M708.834,1123.568a1.543,1.543,0,0,1-1.189.412,2.3,2.3,0,0,1-.48-.052,1.474,1.474,0,0,1-.444-.17,1.038,1.038,0,0,1-.33-.307.874.874,0,0,1-.144-.464h.555a.411.411,0,0,0,.095.255.7.7,0,0,0,.216.17,1.054,1.054,0,0,0,.277.095,1.513,1.513,0,0,0,.288.029,1.032,1.032,0,0,0,.464-.095.875.875,0,0,0,.314-.261,1.078,1.078,0,0,0,.179-.4,2.245,2.245,0,0,0,.056-.516v-.222h-.013a.933.933,0,0,1-.434.46,1.351,1.351,0,0,1-.617.147,1.489,1.489,0,0,1-.66-.137,1.383,1.383,0,0,1-.47-.369,1.566,1.566,0,0,1-.284-.542,2.234,2.234,0,0,1-.095-.656,2.573,2.573,0,0,1,.078-.617,1.691,1.691,0,0,1,.261-.575,1.432,1.432,0,0,1,.483-.424,1.5,1.5,0,0,1,.738-.167,1.248,1.248,0,0,1,.588.14.989.989,0,0,1,.418.422h.007v-.484h.523v3.089A1.779,1.779,0,0,1,708.834,1123.568Zm-.709-1.518a.909.909,0,0,0,.31-.3,1.373,1.373,0,0,0,.173-.421,2.044,2.044,0,0,0,.056-.47,1.856,1.856,0,0,0-.052-.438,1.223,1.223,0,0,0-.167-.388.864.864,0,0,0-.3-.278.883.883,0,0,0-.444-.1.961.961,0,0,0-.457.1.887.887,0,0,0-.31.271,1.148,1.148,0,0,0-.176.392,1.905,1.905,0,0,0-.055.464,2.306,2.306,0,0,0,.046.457,1.3,1.3,0,0,0,.157.415.881.881,0,0,0,.294.3.85.85,0,0,0,.457.114A.9.9,0,0,0,708.125,1122.049Z" transform="translate(-684.374 -1117.951)" fill="#122472"/>
      <path id="Path_18" data-name="Path 18" d="M750.8,1109.914v1.744h.013a.832.832,0,0,1,.431-.408,1.612,1.612,0,0,1,.647-.127,1.526,1.526,0,0,1,.683.144,1.393,1.393,0,0,1,.483.389,1.722,1.722,0,0,1,.291.565,2.313,2.313,0,0,1,.1.679,2.387,2.387,0,0,1-.095.679,1.6,1.6,0,0,1-.287.558,1.359,1.359,0,0,1-.484.376,1.566,1.566,0,0,1-.676.137,1.676,1.676,0,0,1-.278-.026,1.579,1.579,0,0,1-.3-.085,1.194,1.194,0,0,1-.284-.16.9.9,0,0,1-.225-.251H750.8v.45h-.555v-4.663Zm2,2.485a1.256,1.256,0,0,0-.189-.4.933.933,0,0,0-.327-.281.994.994,0,0,0-.467-.1.917.917,0,0,0-.8.4,1.211,1.211,0,0,0-.179.408,1.976,1.976,0,0,0,0,.944,1.185,1.185,0,0,0,.186.408.949.949,0,0,0,.33.284,1.029,1.029,0,0,0,.49.108.947.947,0,0,0,.48-.111.889.889,0,0,0,.31-.294,1.281,1.281,0,0,0,.17-.418,2.227,2.227,0,0,0,.052-.483A1.746,1.746,0,0,0,752.793,1112.4Z" transform="translate(-722.732 -1109.914)" fill="#122472"/>
      <path id="Path_19" data-name="Path 19" d="M781.5,1122.6a.786.786,0,0,1-.4.085.478.478,0,0,1-.343-.121.526.526,0,0,1-.127-.4,1.328,1.328,0,0,1-.532.4,1.838,1.838,0,0,1-1.091.069,1.012,1.012,0,0,1-.356-.163.782.782,0,0,1-.238-.291.98.98,0,0,1-.088-.435.993.993,0,0,1,.1-.47.855.855,0,0,1,.258-.3,1.174,1.174,0,0,1,.366-.173,4.312,4.312,0,0,1,.421-.1q.229-.046.434-.069a2.406,2.406,0,0,0,.363-.065.6.6,0,0,0,.248-.124.3.3,0,0,0,.091-.238.553.553,0,0,0-.069-.294.47.47,0,0,0-.176-.17.721.721,0,0,0-.242-.078,1.843,1.843,0,0,0-.264-.02,1.176,1.176,0,0,0-.588.134.569.569,0,0,0-.255.506h-.555a1.2,1.2,0,0,1,.131-.529.987.987,0,0,1,.313-.349,1.317,1.317,0,0,1,.447-.193,2.363,2.363,0,0,1,.539-.059,3.152,3.152,0,0,1,.454.033,1.189,1.189,0,0,1,.408.133.784.784,0,0,1,.294.284.9.9,0,0,1,.111.476v1.734a1.277,1.277,0,0,0,.023.287c.015.061.066.091.153.091a.664.664,0,0,0,.17-.026Zm-.9-1.731a.694.694,0,0,1-.274.114c-.113.024-.232.043-.356.058s-.249.032-.376.052a1.394,1.394,0,0,0-.339.094.616.616,0,0,0-.245.185.517.517,0,0,0-.095.328.447.447,0,0,0,.056.231.453.453,0,0,0,.144.153.6.6,0,0,0,.206.085,1.144,1.144,0,0,0,.248.026,1.322,1.322,0,0,0,.47-.075.983.983,0,0,0,.32-.188.74.74,0,0,0,.183-.247.62.62,0,0,0,.059-.25Z" transform="translate(-747.146 -1117.951)" fill="#122472"/>
      <path id="Path_20" data-name="Path 20" d="M806.934,1119.232v.712h.013a1.5,1.5,0,0,1,.5-.608,1.247,1.247,0,0,1,.745-.183v.588a1.574,1.574,0,0,0-.568.091.9.9,0,0,0-.379.268,1.11,1.11,0,0,0-.209.428,2.317,2.317,0,0,0-.065.578v1.5h-.555v-3.376Z" transform="translate(-771.561 -1117.945)" fill="#122472"/>
      <path id="Path_21" data-name="Path 21" d="M823.576,1119.232v.712h.013a1.5,1.5,0,0,1,.5-.608,1.247,1.247,0,0,1,.745-.183v.588a1.573,1.573,0,0,0-.568.091.9.9,0,0,0-.379.268,1.1,1.1,0,0,0-.209.428,2.3,2.3,0,0,0-.065.578v1.5h-.555v-3.376Z" transform="translate(-786.027 -1117.945)" fill="#122472"/>
      <path id="Path_22" data-name="Path 22" d="M840.094,1110.593v-.679h.555v.679Zm.555.607v3.377h-.555V1111.2Z" transform="translate(-800.841 -1109.914)" fill="#122472"/>
      <path id="Path_23" data-name="Path 23" d="M852.11,1122.4a1.532,1.532,0,0,1-.954.287,1.736,1.736,0,0,1-.7-.131,1.383,1.383,0,0,1-.5-.366,1.551,1.551,0,0,1-.3-.562,2.7,2.7,0,0,1-.114-.712,2.031,2.031,0,0,1,.117-.705,1.68,1.68,0,0,1,.33-.555,1.49,1.49,0,0,1,.5-.366,1.532,1.532,0,0,1,.637-.131,1.383,1.383,0,0,1,.748.186,1.48,1.48,0,0,1,.477.473,1.871,1.871,0,0,1,.248.627,2.69,2.69,0,0,1,.056.646h-2.528a1.338,1.338,0,0,0,.052.421.953.953,0,0,0,.189.353.931.931,0,0,0,.333.245,1.149,1.149,0,0,0,.477.091.96.96,0,0,0,.578-.163.789.789,0,0,0,.3-.5h.549A1.35,1.35,0,0,1,852.11,1122.4Zm-.134-2.168a.945.945,0,0,0-.2-.3.963.963,0,0,0-.3-.2.953.953,0,0,0-.382-.075.97.97,0,0,0-.389.075.9.9,0,0,0-.3.206.986.986,0,0,0-.2.3,1.152,1.152,0,0,0-.085.369h1.94A1.143,1.143,0,0,0,851.976,1120.23Z" transform="translate(-809.05 -1117.951)" fill="#122472"/>
      <path id="Path_24" data-name="Path 24" d="M878.143,1119.232v.712h.013a1.5,1.5,0,0,1,.5-.608,1.247,1.247,0,0,1,.745-.183v.588a1.574,1.574,0,0,0-.568.091.9.9,0,0,0-.379.268,1.1,1.1,0,0,0-.209.428,2.3,2.3,0,0,0-.065.578v1.5h-.555v-3.376Z" transform="translate(-833.463 -1117.945)" fill="#122472"/>
      <path id="Path_25" data-name="Path 25" d="M893.4,1121.86a.592.592,0,0,0,.206.2.921.921,0,0,0,.288.108,1.631,1.631,0,0,0,.33.033,2.035,2.035,0,0,0,.274-.02,1.009,1.009,0,0,0,.264-.072.5.5,0,0,0,.2-.153.41.41,0,0,0,.078-.258.37.37,0,0,0-.163-.326,1.4,1.4,0,0,0-.408-.18q-.245-.068-.532-.124a2.755,2.755,0,0,1-.532-.157,1.1,1.1,0,0,1-.408-.284.738.738,0,0,1-.163-.51.81.81,0,0,1,.114-.437.934.934,0,0,1,.294-.3,1.341,1.341,0,0,1,.4-.17,1.859,1.859,0,0,1,.448-.056,2.671,2.671,0,0,1,.529.049,1.225,1.225,0,0,1,.428.17.879.879,0,0,1,.3.327,1.24,1.24,0,0,1,.131.513h-.555a.532.532,0,0,0-.268-.444.834.834,0,0,0-.245-.095,1.259,1.259,0,0,0-.271-.029,1.663,1.663,0,0,0-.251.02.851.851,0,0,0-.232.069.464.464,0,0,0-.17.13.33.33,0,0,0-.065.212.312.312,0,0,0,.1.238.811.811,0,0,0,.258.157,2.263,2.263,0,0,0,.353.1q.2.042.392.088a4.169,4.169,0,0,1,.408.111,1.331,1.331,0,0,1,.353.173.845.845,0,0,1,.248.271.8.8,0,0,1,.095.405.941.941,0,0,1-.127.51.993.993,0,0,1-.333.326,1.393,1.393,0,0,1-.464.173,2.74,2.74,0,0,1-.513.049,2.371,2.371,0,0,1-.536-.059,1.311,1.311,0,0,1-.451-.193.978.978,0,0,1-.313-.353,1.22,1.22,0,0,1-.131-.532h.555A.625.625,0,0,0,893.4,1121.86Z" transform="translate(-846.627 -1117.951)" fill="#122472"/>
    </g>
    <g id="Group_5" data-name="Group 5">
      <path id="Path_26" data-name="Path 26" d="M393.187,982.487c.22,0,.579,0,.879.02,2.5,0,3.957-.04,4.936-.04.759,0,1.079.38,1.079.9a.873.873,0,0,1-.62,1c-.879.04-2.978.02-4.616.02h-.879V986.3l-.02,1.879v.26h.8c.6,0,2.478-.04,3.238-.06.759,0,1.239.12,1.219.959,0,.54-.24.939-1.039.939-.879,0-3.457.02-4.257.02-.02.4-.02.859-.02,1.279,0,.819-.02,1.719-.02,2.538.959.02,2.518,0,4.556-.02.4-.02.659-.04.979-.04.62,0,.879.38.879.979,0,.54-.2,1.039-1.119,1.059-1.339.04-2.978,0-5.376,0-1.639,0-2.058-.16-2.118-1.259V994.1c0-.1.08-2.558.08-5.736,0-1.619.02-3.217.02-4.856C391.808,982.747,392.367,982.487,393.187,982.487Z" transform="translate(-391.668 -982.327)" fill="#122472"/>
      <path id="Path_27" data-name="Path 27" d="M475.857,996.136c-.679,0-1.139-.28-1.159-1,0-.34,0-1.219.02-5,.02-1.839,0-2.618,0-4.477,0-.559-.02-1.4,0-2.2,0-.64.679-1,1.339-1s1.019.44,1.419,1l4.656,6.575,1.6,2.278c-.02-1.039-.04-2.638-.04-4.057l-.04-4.4c-.02-.879.22-1.4,1.139-1.4.739,0,1.059.46,1.059,1.279,0,2.2-.02,4.516-.02,6.695.02,1.079.04,2.138.04,4.616,0,.659-.6,1.059-1.319,1.059-.62,0-.9-.34-1.359-.979-1.479-2.158-4.317-6.2-6.355-9.093,0,2.158.06,6.795.08,8.853C476.916,995.757,476.536,996.136,475.857,996.136Z" transform="translate(-463.846 -982.327)" fill="#122472"/>
      <path id="Path_28" data-name="Path 28" d="M583.887,982.467c.66,0,1,.3,1,.919,0,.7-.28,1.079-1.059,1.079H580.51v1c0,1.978.02,3.857.08,9.493a1.054,1.054,0,0,1-1.2,1.179c-.659,0-1.059-.28-1.039-1.1l.04-7.354c0-1.159-.02-2.038-.04-3.218-.779.02-1.8.02-3.477.02-.659,0-.939-.4-.939-1.019a.91.91,0,0,1,.979-.979c.52,0,1.219.02,4.656.02C580.27,982.507,583.008,982.467,583.887,982.467Z" transform="translate(-550.113 -982.327)" fill="#122472"/>
      <path id="Path_29" data-name="Path 29" d="M652.563,993.826c.939-2.138,1.8-4.177,1.978-4.6.36-.919,1.079-2.638,2.458-6.135a1.315,1.315,0,0,1,1.239-.779,1.211,1.211,0,0,1,1.339.819c.62,1.459,1.739,4.437,2.638,6.675.08.18.2.42.28.62.74,1.859,1.179,2.918,1.639,3.957a1.665,1.665,0,0,1,.18.719,1.152,1.152,0,0,1-1.219.919,1.035,1.035,0,0,1-1.1-.779c-.619-1.579-1-2.558-1.039-2.738-.7-.02-2.019-.02-3.457-.02H655.54c-.18.42-.659,1.759-1,2.6-.22.54-.44.919-1.039.919s-1.279-.28-1.279-1.039A2.6,2.6,0,0,1,652.563,993.826Zm3.6-3.1c.959,0,2.5,0,4.137-.04-.38-1.059-1.619-4.516-2.018-5.675C657.779,986.492,656.859,988.87,656.16,990.728Z" transform="translate(-618.17 -982.195)" fill="#122472"/>
      <path id="Path_30" data-name="Path 30" d="M761.3,982.162a.92.92,0,0,1,1.039,1.019c0,1.319-.04,2.758-.06,4.217,0,1.239-.02,2.518-.02,3.737,0,2.178-.02,2.5-.02,2.7.56,0,1.639,0,2.118-.02l2.858-.1a.855.855,0,0,1,.979.939c0,.66-.3,1.139-1.039,1.139l-2.278-.02c-1.019,0-2,0-2.818.04-1.5.06-1.938-.18-2.038-1.279v-.759c0-1.539.08-3.238.1-4.916,0-1.819-.02-4.3-.02-5.675A1.07,1.07,0,0,1,761.3,982.162Z" transform="translate(-711.881 -982.062)" fill="#122472"/>
      <path id="Path_31" data-name="Path 31" d="M838.761,982.487c.22,0,.579,0,.879.02,2.5,0,3.957-.04,4.936-.04.759,0,1.079.38,1.079.9a.874.874,0,0,1-.62,1c-.88.04-2.978.02-4.617.02h-.879V986.3l-.02,1.879v.26h.8c.6,0,2.478-.04,3.238-.06.759,0,1.239.12,1.219.959,0,.54-.24.939-1.039.939-.879,0-3.457.02-4.257.02-.02.4-.02.859-.02,1.279,0,.819-.02,1.719-.02,2.538.959.02,2.518,0,4.557-.02.4-.02.659-.04.979-.04.62,0,.879.38.879.979,0,.54-.2,1.039-1.119,1.059-1.339.04-2.978,0-5.376,0-1.639,0-2.058-.16-2.118-1.259V994.1c0-.1.08-2.558.08-5.736,0-1.619.02-3.217.02-4.856C837.382,982.747,837.942,982.487,838.761,982.487Z" transform="translate(-779.007 -982.327)" fill="#122472"/>
      <path id="Path_32" data-name="Path 32" d="M921.936,995.246a6.508,6.508,0,0,1-5.8-6.775c0-3.677,2.778-6.915,6.235-7.034a.741.741,0,0,1,.24-.04,6.493,6.493,0,0,1,6.695,6.575c.02,3.477-1.579,5.436-3.158,6.335a2.61,2.61,0,0,1-.62.34c1.019.679,1.8,1.519,2.958,1.519,1.339,0,1.3-1.059,2.078-1.059a.987.987,0,0,1,1.079,1.039c0,1.279-1.659,2.318-3.238,2.3-1.659-.02-3.018-1.459-4.7-2.618a2.506,2.506,0,0,0-1.3-.52Zm.56-11.771c-2.078,0-4.1,2.178-4.1,4.936a4.581,4.581,0,0,0,4.7,4.876c2.558-.28,3.917-2.338,3.917-5.076A4.441,4.441,0,0,0,922.5,983.475Z" transform="translate(-847.594 -981.397)" fill="#122472"/>
    </g>
  </g>
</svg>
